<?xml version="1.0" encoding="UTF-8"?>
<svg version="1.1" xmlns="http://www.w3.org/2000/svg" width="256" height="256">
<path d="M0 0 C84.48 0 168.96 0 256 0 C256 84.48 256 168.96 256 256 C171.52 256 87.04 256 0 256 C0 171.52 0 87.04 0 0 Z " fill="#F8F8F8" transform="translate(0,0)"/>
<path d="M0 0 C84.48 0 168.96 0 256 0 C256 84.48 256 168.96 256 256 C171.52 256 87.04 256 0 256 C0 171.52 0 87.04 0 0 Z M36.60205078 49.13183594 C17.75078446 71.11444641 7.54859565 98.87972233 7.6875 127.75 C7.69313965 128.98210205 7.6987793 130.2142041 7.70458984 131.48364258 C7.91158544 147.04622713 11.39282594 160.58155242 17 175 C17.31710938 175.85078125 17.63421875 176.7015625 17.9609375 177.578125 C29.43530645 206.00087377 55.35536542 228.22735367 83 240 C113.5781098 252.42750907 146.92852736 250.82978587 177.04736328 238.13720703 C188.16882551 233.27173541 197.58122312 226.59484847 207 219 C207.59135742 218.5364209 208.18271484 218.0728418 208.79199219 217.59521484 C210.23331606 216.44358948 211.62239167 215.22713112 213 214 C213 213.34 213 212.68 213 212 C213.66 212 214.32 212 215 212 C216.81840566 209.9343153 218.51270448 207.86549277 220.1875 205.6875 C220.68000244 205.05392578 221.17250488 204.42035156 221.67993164 203.76757812 C225.20912482 199.17056001 228.44197796 194.44791332 231.46484375 189.5 C233 187 233 187 234.96875 184.2890625 C237.52146588 180.1556264 239.01793786 175.96292802 240.5625 171.375 C241.01810303 170.0442041 241.01810303 170.0442041 241.48291016 168.68652344 C252.34240782 136.50110788 250.0861054 103.48298177 235.375 72.9375 C225.32065141 53.07325575 209.58466558 37.02738361 190.8918457 25.20214844 C189.62495064 24.39711666 188.37069256 23.57186394 187.12963867 22.72753906 C139.58210604 -8.88628708 72.67051067 9.23583331 36.60205078 49.13183594 Z " fill="#FEFEFE" transform="translate(0,0)"/>
<path d="M0 0 C0.99 0 1.98 0 3 0 C3.66 2.97 4.32 5.94 5 9 C5.33 7.02 5.66 5.04 6 3 C6.66 3 7.32 3 8 3 C9.33333333 4.66666667 10.66666667 6.33333333 12 8 C13.01835938 8.680625 14.03671875 9.36125 15.0859375 10.0625 C17.11626445 11.72190184 17.90018904 12.62440667 18.58007812 15.18286133 C18.81347027 17.74078845 18.88266101 20.24414688 18.875 22.8125 C18.895625 23.69615234 18.91625 24.57980469 18.9375 25.49023438 C18.98440843 27.6597492 18.99574089 29.8299823 19 32 C16.5 29.6875 16.5 29.6875 14 27 C14 26.01 14 25.02 14 24 C13.34 24 12.68 24 12 24 C12 21.69 12 19.38 12 17 C11.34 17 10.68 17 10 17 C10.45492332 27.69069801 18.73000948 35.27486167 25.39453125 42.984375 C27.35907028 45.2581743 29.2797738 47.55436868 31.1875 49.875 C33.88662847 53.02658353 36.94717458 55.6723708 40.09765625 58.36328125 C42.54793773 60.47142897 44.81816319 62.61361599 47 65 C47 65.66 47 66.32 47 67 C47.54140625 67.21269531 48.0828125 67.42539063 48.640625 67.64453125 C51.85317453 69.49015159 54.20574025 72.03946708 56.75 74.6875 C60.12597502 78.14177185 63.4834013 81.5171345 67.1875 84.625 C71.92152058 88.66312936 75.90472414 93.33095519 80 98 C80.70511719 98.76699219 81.41023438 99.53398438 82.13671875 100.32421875 C93.80347655 113.05765155 97.61230542 122.78741443 97 140 C96.34 140 95.68 140 95 140 C94.92910156 141.12535156 94.85820312 142.25070313 94.78515625 143.41015625 C94.12046648 148.66409541 91.94558107 152.82964089 89.4375 157.4375 C88.99148437 158.27063721 88.54546875 159.10377441 88.0859375 159.9621582 C84.80878449 165.91600296 81.33591997 171.64494767 76 176 C75.34 176 74.68 176 74 176 C75.67261866 172.43059729 77.75530414 169.1945237 79.875 165.875 C84.22917936 158.92088544 87.53059947 152.10310195 89 144 C89.66 144 90.32 144 91 144 C90.55398832 126.02572926 85.63407266 114.27790755 72.55078125 101.6328125 C70.96057581 100.23973996 69.36004912 98.85837113 67.75 97.48828125 C62.32524712 92.57980456 57.49905784 87.05939884 52.56396484 81.66601562 C51.1110384 80.1182838 49.61285376 78.64189507 48.08203125 77.171875 C46 75 46 75 46 73 C44.515 72.505 44.515 72.505 43 72 C41.59765625 70.57421875 41.59765625 70.57421875 40.0625 68.6875 C37.44011898 65.57928839 34.70145212 62.68739168 31.7800293 59.85791016 C25.79050793 54.05284349 20.61765134 47.90540577 15.55078125 41.2890625 C10.13599991 33.66632962 10.13599991 33.66632962 3 28 C3.01879211 28.82610527 3.01879211 28.82610527 3.03796387 29.66889954 C3.80735029 63.78425249 4.14099815 97.87627733 4 132 C4.66 132 5.32 132 6 132 C6.25523438 131.27425781 6.51046875 130.54851562 6.7734375 129.80078125 C10.68281582 120.87395242 19.0063766 113.20515655 26.375 107 C30.56780849 105.40273962 34.58070123 105.35521707 39 106 C42.125 107.625 42.125 107.625 44 110 C44.3125 113.25 44.3125 113.25 44 116 C42.515 115.505 42.515 115.505 41 115 C38.88349603 114.76704274 38.88349603 114.76704274 36.625 114.75 C35.87476563 114.72421875 35.12453125 114.6984375 34.3515625 114.671875 C27.57930528 115.61684112 21.32400542 122.01019009 17 127 C13.36085789 131.96086726 10.14109305 137.20354072 6.96459961 142.46875 C6 144 6 144 5 145 C4.38126658 153.19821781 6.03080835 161.75191089 10 169 C23.45618974 169.56154115 30.72492877 167.64441939 41 159 C44.62045455 156 44.62045455 156 48 156 C47.938125 157.0725 47.87625 158.145 47.8125 159.25 C47.79709375 162.85064935 47.79709375 162.85064935 48.9375 165.4375 C51.85509704 167.64780079 54.25110722 167.4858059 57.8359375 167.33984375 C60.55181982 166.91334238 62.10387937 165.97856066 64 164 C62.87073305 160.71485977 61.38365351 157.95743652 59.5 155.0625 C56.00831056 149.55795429 54.80769093 144.53016637 54.2265625 138.10546875 C54.03505404 135.87267194 54.03505404 135.87267194 53.3125 133.25 C52.90815601 130.33872329 53.73456304 128.60531138 55 126 C58.82852379 127.51761303 60.73321866 129.79343415 63.25 133 C64.30960938 134.3303125 64.30960938 134.3303125 65.390625 135.6875 C67 138 67 138 67 140 C65.35 139.67 63.7 139.34 62 139 C62.433125 139.598125 62.86625 140.19625 63.3125 140.8125 C67.41086664 148.55385922 69.43913564 157.47591844 67.53125 166.125 C65.97079953 171.02927289 63.5650369 175.38461428 59 178 C55.50096406 178.77943269 52.49839202 178.78130755 49 178 C45.64875547 175.60625391 44.32756886 174.13389222 43.1875 170.1875 C43.125625 169.465625 43.06375 168.74375 43 168 C39.89267096 169.38560809 37.7586276 171.02630725 35.3125 173.375 C29.03462321 178.93341587 22.84745359 181.76936416 14.36328125 181.38671875 C9.4383757 180.58082512 6.15181733 178.48621591 3.0625 174.5 C2 172 2 172 2 168 C1.34 168 0.68 168 0 168 C0 163.71 0 159.42 0 155 C-2.91192364 157.91192364 -4.68151637 159.84750732 -6.75 163.1875 C-12.07781192 171.29271763 -17.74053323 178.38949896 -27 182 C-31.15842864 182.83168573 -33.29854049 182.04955709 -36.75 179.8125 C-39.65619488 177.56709557 -41.06613261 175.63170653 -42 172 C-42.66 172 -43.32 172 -44 172 C-45.03300166 167.75321538 -45.1336046 163.73753272 -45.125 159.375 C-45.12757812 158.06273437 -45.13015625 156.75046875 -45.1328125 155.3984375 C-45 152 -45 152 -44 149 C-43.34 149 -42.68 149 -42 149 C-41.93941406 150.31355469 -41.87882812 151.62710938 -41.81640625 152.98046875 C-41.73196744 154.71615541 -41.64732112 156.45183198 -41.5625 158.1875 C-41.52318359 159.05181641 -41.48386719 159.91613281 -41.44335938 160.80664062 C-41.23652984 164.95914122 -40.99896469 168.94537862 -40 173 C-32.76206268 173.73055816 -27.90198726 173.29877962 -22.04296875 168.80859375 C-15.00237554 162.57571678 -10.13146087 154.92299832 -5.0390625 147.09765625 C-3 144 -3 144 -2 143 C-1.93477641 140.30172944 -1.93505241 137.63043951 -1.97827148 134.93310547 C-1.98787903 134.08542603 -1.99748657 133.23774658 -2.00738525 132.36437988 C-2.04061335 129.53190439 -2.0809429 126.69957264 -2.12109375 123.8671875 C-2.1454364 121.88022449 -2.16927777 119.89325527 -2.19264221 117.90628052 C-2.25574132 112.63431808 -2.32457132 107.3624466 -2.39489746 102.09057617 C-3.04940764 52.68912325 -3.04940764 52.68912325 -3.09239388 34.59756851 C-3.0975202 32.62272429 -3.10698195 30.64789282 -3.11656189 28.67306519 C-3.11684891 27.52556793 -3.11713593 26.37807068 -3.11743164 25.19580078 C-3.11908829 24.20701935 -3.12074493 23.21823792 -3.12245178 22.19949341 C-3 20 -3 20 -2 19 C-1.97360461 15.62893117 -2.02924986 12.27162619 -2.12695312 8.90234375 C-2.18676825 5.03899007 -2.19710539 3.29565808 0 0 Z " fill="#111111" transform="translate(101,24)"/>
<path d="M0 0 C5.30352568 1.96426877 8.05539554 6.40394419 10.8125 11.0625 C13.61174969 18.18786284 12.83326745 27.04737441 10 34 C8.7109375 35.8984375 8.7109375 35.8984375 7.375 37.375 C6.59125 38.24125 5.8075 39.1075 5 40 C5 37 5 37 6.47265625 34.3046875 C8.23794763 30.48515679 8.49756301 27.25128016 8.4375 23.125 C8.43210205 22.41972168 8.4267041 21.71444336 8.42114258 20.98779297 C8.25364616 15.25848867 7.2638185 11.66259785 4 7 C3.01 6.34 2.02 5.68 1 5 C1 8.63 1 12.26 1 16 C-2 15 -2 15 -3.3125 12.625 C-5.40372047 9.37199038 -7.49036073 8.48184769 -11 7 C-11 5.68 -11 4.36 -11 3 C-7.21388773 3.54087318 -5.44599233 5.11722332 -3 8 C-3 8.66 -3 9.32 -3 10 C-2.34 10 -1.68 10 -1 10 C-1.01160156 9.36191406 -1.02320312 8.72382812 -1.03515625 8.06640625 C-1.04417969 7.24011719 -1.05320312 6.41382812 -1.0625 5.5625 C-1.07410156 4.73878906 -1.08570312 3.91507812 -1.09765625 3.06640625 C-1 1 -1 1 0 0 Z " fill="#343434" transform="translate(79,114)"/>
<path d="M0 0 C0.66 0 1.32 0 2 0 C4 2.5 4 2.5 6 5 C7.01835938 5.680625 8.03671875 6.36125 9.0859375 7.0625 C11.11626445 8.72190184 11.90018904 9.62440667 12.58007812 12.18286133 C12.81347027 14.74078845 12.88266101 17.24414688 12.875 19.8125 C12.895625 20.69615234 12.91625 21.57980469 12.9375 22.49023438 C12.98440843 24.6597492 12.99574089 26.8299823 13 29 C10.5 26.6875 10.5 26.6875 8 24 C8 23.01 8 22.02 8 21 C7.34 21 6.68 21 6 21 C6 18.69 6 16.38 6 14 C5.34 14 4.68 14 4 14 C3.67 15.32 3.34 16.64 3 18 C2.34 17.67 1.68 17.34 1 17 C-0.20669259 11.32854484 0 5.76882567 0 0 Z " fill="#2E2E2E" transform="translate(107,27)"/>
<path d="M0 0 C0.93972656 0.25136719 0.93972656 0.25136719 1.8984375 0.5078125 C2.71570313 0.71148437 3.53296875 0.91515625 4.375 1.125 C5.18710938 1.33382812 5.99921875 1.54265625 6.8359375 1.7578125 C7.55007812 1.83773437 8.26421875 1.91765625 9 2 C9.66 1.34 10.32 0.68 11 0 C14.80909895 0.32417863 16.78372163 0.85581442 20 3 C19.38722388 5.96175123 18.74627478 7.38058783 17 10 C12 8 12 8 7 6 C6.67 7.32 6.34 8.64 6 10 C2.65626525 9.44271087 -0.03312999 8.64826111 -3 7 C-2.38722388 4.03824877 -1.74627478 2.61941217 0 0 Z " fill="#101010" transform="translate(145,204)"/>
<path d="M0 0 C0.66 0 1.32 0 2 0 C2.06058594 1.31355469 2.12117188 2.62710938 2.18359375 3.98046875 C2.26803256 5.71615541 2.35267888 7.45183198 2.4375 9.1875 C2.47681641 10.05181641 2.51613281 10.91613281 2.55664062 11.80664062 C2.76347016 15.95914122 3.00103531 19.94537862 4 24 C6.97 24.33 9.94 24.66 13 25 C11.02 25.99 11.02 25.99 9 27 C11.475 27.99 11.475 27.99 14 29 C14 29.66 14 30.32 14 31 C14.99 31.66 15.98 32.32 17 33 C11.96186952 33.61440616 9.35150556 32.43617979 5.48046875 29.4453125 C3.51588292 27.5273791 2.67887455 25.64006769 2 23 C1.34 23 0.68 23 0 23 C-1.03300166 18.75321538 -1.1336046 14.73753272 -1.125 10.375 C-1.12757812 9.06273437 -1.13015625 7.75046875 -1.1328125 6.3984375 C-1 3 -1 3 0 0 Z " fill="#404341" transform="translate(57,173)"/>
<path d="M0 0 C3.95820859 0.56545837 6.6659053 1.80902348 10 4 C9.38722388 6.96175123 8.74627478 8.38058783 7 11 C3.51460083 10.35455571 0.97180943 8.89865603 -2 7 C-1.125 2.25 -1.125 2.25 0 0 Z " fill="#161616" transform="translate(130,151)"/>
<path d="M0 0 C3.0831351 1.19899698 6.06279492 2.47700477 9 4 C8.45276317 7.37462715 7.9451 9.08235 6 12 C2.88801935 10.50163895 -0.0534615 8.80066242 -3 7 C-1.125 2.25 -1.125 2.25 0 0 Z " fill="#101010" transform="translate(127,160)"/>
<path d="M0 0 C3.82097239 0.53069061 6.06171403 1.49701566 9 4 C8.67 5.98 8.34 7.96 8 10 C6.4375 10.75 6.4375 10.75 4 11 C1.49713591 9.86915563 -0.67007722 8.47860484 -3 7 C-3 6.34 -3 5.68 -3 5 C-2.34 5 -1.68 5 -1 5 C-0.67 3.35 -0.34 1.7 0 0 Z " fill="#101010" transform="translate(141,158)"/>
<path d="M0 0 C0.33 0.99 0.66 1.98 1 3 C1.66 3 2.32 3 3 3 C0.62485634 12.0255459 -5.16019227 20.68904339 -12 27 C-12.66 27 -13.32 27 -14 27 C-12.32738134 23.43059729 -10.24469586 20.1945237 -8.125 16.875 C-4.72773701 11.47270679 -2.07178302 6.03815709 0 0 Z " fill="#2C2C2C" transform="translate(189,173)"/>
<path d="M0 0 C2.79873395 2.26774885 3.90862725 3.40065669 4.4609375 7.0234375 C4.43257812 8.12945312 4.40421875 9.23546875 4.375 10.375 C4.36210938 11.47585937 4.34921875 12.57671875 4.3359375 13.7109375 C3.83317902 18.63329376 2.73047329 22.66631899 -0.625 26.375 C-1.40875 27.24125 -2.1925 28.1075 -3 29 C-3 26 -3 26 -1.51171875 23.4609375 C0.54295483 18.75695612 0.32842882 14.69121042 0.1875 9.625 C0.16719727 8.23474609 0.16719727 8.23474609 0.14648438 6.81640625 C0.11133881 4.54366002 0.06214132 2.27214153 0 0 Z " fill="#323232" transform="translate(87,125)"/>
<path d="M0 0 C0.99 0.495 0.99 0.495 2 1 C2.144375 2.11375 2.28875 3.2275 2.4375 4.375 C2.69735613 7.90632178 2.69735613 7.90632178 4.4375 9.9375 C5.96072099 11.18743667 5.96072099 11.18743667 8 11 C7.67 14.3 7.34 17.6 7 21 C6.67 21 6.34 21 6 21 C6 18.69 6 16.38 6 14 C5.34 14 4.68 14 4 14 C3.67 15.32 3.34 16.64 3 18 C2.34 17.67 1.68 17.34 1 17 C-0.20669259 11.32854484 0 5.76882567 0 0 Z " fill="#4F4F4F" transform="translate(107,27)"/>
<path d="M0 0 C0.66 0 1.32 0 2 0 C2.16789126 2.43742131 2.33436133 4.87492546 2.5 7.3125 C2.54769531 8.00279297 2.59539062 8.69308594 2.64453125 9.40429688 C2.83879489 12.27662359 3 15.12013788 3 18 C-1.29085952 12.87865154 -2.3601671 9.72311915 -2 3 C-1.34 2.01 -0.68 1.02 0 0 Z " fill="#070707" transform="translate(116,38)"/>
<path d="M0 0 C1.6875 0.125 1.6875 0.125 4 1 C5.69088222 2.97956942 7.35830472 4.97945196 9 7 C9.99 7.33 10.98 7.66 12 8 C12 9.65 12 11.3 12 13 C9 12 9 12 7.6875 9.625 C5.59627953 6.37199038 3.50963927 5.48184769 0 4 C0 2.68 0 1.36 0 0 Z " fill="#1E1E1E" transform="translate(68,117)"/>
<path d="M0 0 C0.33 0.66 0.66 1.32 1 2 C1.99 2.33 2.98 2.66 4 3 C3.01 3 2.02 3 1 3 C0.67 4.65 0.34 6.3 0 8 C-0.66 8 -1.32 8 -2 8 C-2 8.66 -2 9.32 -2 10 C-1.34 10.33 -0.68 10.66 0 11 C-1.32 11.33 -2.64 11.66 -4 12 C-4 11.01 -4 10.02 -4 9 C-5.1446875 8.566875 -5.1446875 8.566875 -6.3125 8.125 C-9 7 -9 7 -12 5 C-11.67 4.34 -11.34 3.68 -11 3 C-7.04 4.98 -7.04 4.98 -3 7 C-1 3.23570226 -1 3.23570226 0 0 Z " fill="#D7D7D7" transform="translate(140,155)"/>
<path d="M0 0 C2.97 0.33 5.94 0.66 9 1 C9.33 1.99 9.66 2.98 10 4 C10.99 4.66 11.98 5.32 13 6 C7.77895216 6.63671315 5.32292214 5.23234994 1.3203125 2.19140625 C0.88460937 1.79824219 0.44890625 1.40507812 0 1 C0 0.67 0 0.34 0 0 Z " fill="#28352A" transform="translate(61,200)"/>
<path d="M0 0 C0.33 0.99 0.66 1.98 1 3 C1.66 3 2.32 3 3 3 C1.74194623 7.50802601 0.09592835 10.4912812 -3 14 C-3.34615998 8.34605369 -2.43425238 4.96993194 0 0 Z " fill="#222222" transform="translate(189,173)"/>
<path d="M0 0 C0.66 0 1.32 0 2 0 C2 2.31 2 4.62 2 7 C2.66 7 3.32 7 4 7 C7 12.625 7 12.625 7 16 C3.29899197 12.69552855 1.10952947 9.4534511 -1 5 C-0.75 2.0625 -0.75 2.0625 0 0 Z " fill="#BBBBBB" transform="translate(111,41)"/>
<path d="M0 0 C0.33 0 0.66 0 1 0 C2.87443946 13.24035874 2.87443946 13.24035874 0.73046875 17.5546875 C-0.9375 19.4375 -0.9375 19.4375 -4 22 C-4 19 -4 19 -2.5625 16.625 C-0.24279165 11.24327662 -0.24978366 5.80531668 0 0 Z " fill="#5F5F5F" transform="translate(88,132)"/>
<path d="M0 0 C-0.33 1.65 -0.66 3.3 -1 5 C-2.65 4.67 -4.3 4.34 -6 4 C-6 3.34 -6 2.68 -6 2 C-7.32 1.67 -8.64 1.34 -10 1 C-3.71428571 -1.42857143 -3.71428571 -1.42857143 0 0 Z " fill="#EAF5EC" transform="translate(80,205)"/>
<path d="M0 0 C3.15140423 0.34069235 4.60781561 0.58076841 6.8125 2.9375 C8 5 8 5 8 7 C5.05043472 5.63055898 2.47531189 4.12169591 0 2 C0 1.34 0 0.68 0 0 Z " fill="#363636" transform="translate(68,108)"/>
<path d="M0 0 C0.33 0.66 0.66 1.32 1 2 C1.99 2.33 2.98 2.66 4 3 C3.01 3 2.02 3 1 3 C0.67 4.65 0.34 6.3 0 8 C-0.99 7.67 -1.98 7.34 -3 7 C-2.690625 6.401875 -2.38125 5.80375 -2.0625 5.1875 C-0.89790296 2.91043228 -0.89790296 2.91043228 0 0 Z " fill="#BBBBBB" transform="translate(140,155)"/>
<path d="M0 0 C3.16115776 1.36983503 3.9927092 1.9890638 6 5 C3.03 4.505 3.03 4.505 0 4 C0 2.68 0 1.36 0 0 Z " fill="#141414" transform="translate(79,114)"/>
<path d="M0 0 C0.99 0.495 0.99 0.495 2 1 C2.38063221 3.3260857 2.71269945 5.66055264 3 8 C3.33 8.66 3.66 9.32 4 10 C2.68 9.67 1.36 9.34 0 9 C0 6.03 0 3.06 0 0 Z " fill="#9C9C9C" transform="translate(107,27)"/>
</svg>
