<?xml version="1.0" encoding="UTF-8"?>
<!DOCTYPE svg PUBLIC "-//W3C//DTD SVG 1.1//EN" "http://www.w3.org/Graphics/SVG/1.1/DTD/svg11.dtd">
<svg xmlns="http://www.w3.org/2000/svg" version="1.1" width="328px" height="302px" style="shape-rendering:geometricPrecision; text-rendering:geometricPrecision; image-rendering:optimizeQuality; fill-rule:evenodd; clip-rule:evenodd" xmlns:xlink="http://www.w3.org/1999/xlink">
<g><path style="opacity:1" fill="#f9f8fd" d="M -0.5,-0.5 C 108.833,-0.5 218.167,-0.5 327.5,-0.5C 327.5,100.167 327.5,200.833 327.5,301.5C 218.167,301.5 108.833,301.5 -0.5,301.5C -0.5,200.833 -0.5,100.167 -0.5,-0.5 Z"/></g>
<g><path style="opacity:1" fill="#83a4c1" d="M 120.5,47.5 C 119.609,48.1098 118.609,48.4431 117.5,48.5C 118.221,46.6182 119.221,46.2848 120.5,47.5 Z"/></g>
<g><path style="opacity:1" fill="#b5c6d6" d="M 209.5,48.5 C 208.504,48.5858 207.671,48.2524 207,47.5C 206.51,49.5454 206.677,51.5454 207.5,53.5C 205.166,51.8243 204.166,49.491 204.5,46.5C 206.698,46.1201 208.365,46.7868 209.5,48.5 Z"/></g>
<g><path style="opacity:1" fill="#13588f" d="M 120.5,47.5 C 120.095,51.6447 119.095,55.6447 117.5,59.5C 119.547,64.7175 123.214,68.5508 128.5,71C 134.526,76.8535 140.192,82.6868 145.5,88.5C 145.5,89.1667 145.5,89.8333 145.5,90.5C 139.581,90.8468 133.581,90.8468 127.5,90.5C 127.5,91.8333 127.5,93.1667 127.5,94.5C 127.167,94.5 126.833,94.5 126.5,94.5C 125.717,90.3948 123.717,87.0615 120.5,84.5C 117.589,79.2539 113.922,74.5873 109.5,70.5C 106.859,68.1956 104.192,65.8623 101.5,63.5C 99.0029,60.7511 96.0029,58.7511 92.5,57.5C 92.9704,56.3065 93.9704,55.6399 95.5,55.5C 97.5122,55.8396 99.5122,56.1729 101.5,56.5C 103.292,56.366 104.958,56.6993 106.5,57.5C 107.879,59.5969 109.545,59.9302 111.5,58.5C 113.925,55.5537 115.925,52.2204 117.5,48.5C 118.609,48.4431 119.609,48.1098 120.5,47.5 Z"/></g>
<g><path style="opacity:1" fill="#4b7ba5" d="M 117.5,48.5 C 115.925,52.2204 113.925,55.5537 111.5,58.5C 112.268,54.405 114.268,51.0716 117.5,48.5 Z"/></g>
<g><path style="opacity:1" fill="#6791b3" d="M 101.5,56.5 C 99.5122,56.1729 97.5122,55.8396 95.5,55.5C 93.9704,55.6399 92.9704,56.3065 92.5,57.5C 91.596,56.791 91.2627,55.791 91.5,54.5C 94.5184,54.3354 97.5184,54.502 100.5,55C 101.056,55.3826 101.389,55.8826 101.5,56.5 Z"/></g>
<g><path style="opacity:1" fill="#6e95b4" d="M 233.5,57.5 C 233.03,56.3065 232.03,55.6399 230.5,55.5C 227.86,56.0951 225.193,56.4285 222.5,56.5C 224.634,54.9666 227.134,54.2999 230,54.5C 231.833,54.8333 233.667,55.1667 235.5,55.5C 235.145,56.5223 234.478,57.189 233.5,57.5 Z"/></g>
<g><path style="opacity:1" fill="#93adc2" d="M 168.5,58.5 C 164.434,58.307 160.434,58.6403 156.5,59.5C 156.611,58.8826 156.944,58.3826 157.5,58C 161.358,57.1901 165.024,57.3567 168.5,58.5 Z"/></g>
<g><path style="opacity:1" fill="#80a3bf" d="M 106.5,57.5 C 108.117,58.038 109.784,58.3713 111.5,58.5C 109.545,59.9302 107.879,59.5969 106.5,57.5 Z"/></g>
<g><path style="opacity:1" fill="#11578f" d="M 209.5,48.5 C 211.376,52.2701 213.876,55.6035 217,58.5C 218.8,57.6805 220.634,57.0138 222.5,56.5C 225.193,56.4285 227.86,56.0951 230.5,55.5C 232.03,55.6399 233.03,56.3065 233.5,57.5C 231.127,58.8389 228.793,60.1722 226.5,61.5C 223.833,62.1667 222.167,63.8333 221.5,66.5C 220.833,66.5 220.5,66.8333 220.5,67.5C 214.908,72.0135 210.241,77.3468 206.5,83.5C 205.167,85.1667 203.833,86.8333 202.5,88.5C 201.022,88.238 199.689,88.5713 198.5,89.5C 199.894,90.6869 199.727,91.3535 198,91.5C 192.757,91.244 187.924,90.244 183.5,88.5C 185.918,85.7541 187.918,82.7541 189.5,79.5C 192.901,75.096 196.901,71.4293 201.5,68.5C 209.669,66.4605 211.669,61.7938 207.5,54.5C 207.5,54.1667 207.5,53.8333 207.5,53.5C 206.677,51.5454 206.51,49.5454 207,47.5C 207.671,48.2524 208.504,48.5858 209.5,48.5 Z"/></g>
<g><path style="opacity:1" fill="#698faf" d="M 207.5,54.5 C 211.669,61.7938 209.669,66.4605 201.5,68.5C 203.481,66.6969 205.648,65.0303 208,63.5C 207.848,60.553 207.681,57.553 207.5,54.5 Z"/></g>
<g><path style="opacity:1" fill="#839db6" d="M 226.5,61.5 C 225.167,63.5 223.5,65.1667 221.5,66.5C 222.167,63.8333 223.833,62.1667 226.5,61.5 Z"/></g>
<g><path style="opacity:1" fill="#e8eaef" d="M 101.5,63.5 C 104.192,65.8623 106.859,68.1956 109.5,70.5C 108.5,71.1667 107.5,71.8333 106.5,72.5C 105.89,73.391 105.557,74.391 105.5,75.5C 104.006,82.1031 103.339,88.9364 103.5,96C 103.9,105.5 104.233,115 104.5,124.5C 104.567,125.959 104.234,127.292 103.5,128.5C 103.167,128.5 102.833,128.5 102.5,128.5C 102.923,125.353 103.256,122.186 103.5,119C 102.42,111.178 101.42,103.345 100.5,95.5C 100.393,85.8579 101.727,76.5245 104.5,67.5C 103.448,67.6495 102.448,67.4828 101.5,67C 102.171,66.0138 102.171,64.8471 101.5,63.5 Z"/></g>
<g><path style="opacity:1" fill="#5382a9" d="M 177.5,69.5 C 178.477,72.2869 178.81,75.2869 178.5,78.5C 178.771,80.3797 178.104,81.713 176.5,82.5C 177.373,78.2315 177.706,73.8982 177.5,69.5 Z"/></g>
<g><path style="opacity:1" fill="#a3b6c8" d="M 177.5,65.5 C 178.952,67.8476 179.618,70.5143 179.5,73.5C 179.493,75.3693 179.16,77.036 178.5,78.5C 178.81,75.2869 178.477,72.2869 177.5,69.5C 177.5,68.1667 177.5,66.8333 177.5,65.5 Z"/></g>
<g><path style="opacity:1" fill="#dfe5eb" d="M 120.5,47.5 C 121.326,52.3165 121.826,57.3165 122,62.5C 123.044,63.6226 123.71,64.9559 124,66.5C 124.414,66.0426 124.914,65.7093 125.5,65.5C 127.071,67.415 129.071,68.415 131.5,68.5C 131.5,69.5 131.5,70.5 131.5,71.5C 137.913,74.0837 142.08,78.7503 144,85.5C 146.158,86.0502 146.658,87.0502 145.5,88.5C 140.192,82.6868 134.526,76.8535 128.5,71C 123.214,68.5508 119.547,64.7175 117.5,59.5C 119.095,55.6447 120.095,51.6447 120.5,47.5 Z"/></g>
<g><path style="opacity:1" fill="#06548d" d="M 168.5,58.5 C 169.609,59.29 170.942,59.79 172.5,60C 173.664,62.3284 175.33,64.1618 177.5,65.5C 177.5,66.8333 177.5,68.1667 177.5,69.5C 177.706,73.8982 177.373,78.2315 176.5,82.5C 174.712,85.6149 172.046,87.6149 168.5,88.5C 165.15,88.665 161.817,88.4983 158.5,88C 156.713,86.6813 154.713,85.848 152.5,85.5C 151.094,85.0269 150.427,84.0269 150.5,82.5C 149.167,76.5 149.167,70.5 150.5,64.5C 151.891,62.1097 153.891,60.4431 156.5,59.5C 160.434,58.6403 164.434,58.307 168.5,58.5 Z"/></g>
<g><path style="opacity:1" fill="#a8b9c8" d="M 109.5,70.5 C 113.922,74.5873 117.589,79.2539 120.5,84.5C 119.532,86.6074 119.198,88.9407 119.5,91.5C 118.441,84.3912 115.107,78.3912 109.5,73.5C 108.583,72.8728 107.583,72.5394 106.5,72.5C 107.5,71.8333 108.5,71.1667 109.5,70.5 Z"/></g>
<g><path style="opacity:1" fill="#b7c5d2" d="M 220.5,67.5 C 220.288,69.3841 219.288,70.7174 217.5,71.5C 218.602,72.1757 219.602,72.8423 220.5,73.5C 215.592,75.4055 211.925,78.7388 209.5,83.5C 208.833,84.8333 208.167,86.1667 207.5,87.5C 207.768,85.901 207.434,84.5676 206.5,83.5C 210.241,77.3468 214.908,72.0135 220.5,67.5 Z"/></g>
<g><path style="opacity:1" fill="#4b77a0" d="M 150.5,64.5 C 149.167,70.5 149.167,76.5 150.5,82.5C 148.14,80.0891 147.14,77.0891 147.5,73.5C 147.14,69.9109 148.14,66.9109 150.5,64.5 Z"/></g>
<g><path style="opacity:1" fill="#587fa1" d="M 189.5,79.5 C 187.918,82.7541 185.918,85.7541 183.5,88.5C 182.5,89.1667 181.5,89.8333 180.5,90.5C 183.129,86.5373 186.129,82.8706 189.5,79.5 Z"/></g>
<g><path style="opacity:1" fill="#dde2e8" d="M 120.5,84.5 C 123.717,87.0615 125.717,90.3948 126.5,94.5C 125.518,93.8592 124.518,93.1925 123.5,92.5C 122.504,98.4632 122.171,104.463 122.5,110.5C 120.492,104.457 119.492,98.1241 119.5,91.5C 119.198,88.9407 119.532,86.6074 120.5,84.5 Z"/></g>
<g><path style="opacity:1" fill="#487094" d="M 105.5,75.5 C 104.554,85.8715 104.554,96.2049 105.5,106.5C 105.5,112.5 105.5,118.5 105.5,124.5C 105.167,124.5 104.833,124.5 104.5,124.5C 104.233,115 103.9,105.5 103.5,96C 103.339,88.9364 104.006,82.1031 105.5,75.5 Z"/></g>
<g><path style="opacity:1" fill="#527b9e" d="M 152.5,85.5 C 154.713,85.848 156.713,86.6813 158.5,88C 161.817,88.4983 165.15,88.665 168.5,88.5C 165.024,89.6433 161.358,89.8099 157.5,89C 155.569,88.0978 153.903,86.9312 152.5,85.5 Z"/></g>
<g><path style="opacity:1" fill="#6d8eaa" d="M 221.5,77.5 C 223.015,82.5805 223.682,87.9138 223.5,93.5C 223.499,97.3492 223.165,101.016 222.5,104.5C 222.499,95.4846 222.166,86.4846 221.5,77.5 Z"/></g>
<g><path style="opacity:1" fill="#e3e6ec" d="M 206.5,83.5 C 207.434,84.5676 207.768,85.901 207.5,87.5C 207.331,92.1811 206.998,96.8478 206.5,101.5C 206.5,101.833 206.5,102.167 206.5,102.5C 204.997,107.953 203.997,113.619 203.5,119.5C 203.167,119.5 202.833,119.5 202.5,119.5C 202.094,111.554 202.761,103.721 204.5,96C 204.333,94.8333 204.167,93.6667 204,92.5C 203.29,93.9733 202.124,94.6399 200.5,94.5C 201.11,93.609 201.443,92.609 201.5,91.5C 201.557,90.391 201.89,89.391 202.5,88.5C 203.833,86.8333 205.167,85.1667 206.5,83.5 Z"/></g>
<g><path style="opacity:1" fill="#074f82" d="M 220.5,73.5 C 220.833,74.8333 221.167,76.1667 221.5,77.5C 222.166,86.4846 222.499,95.4846 222.5,104.5C 222.167,104.5 221.833,104.5 221.5,104.5C 221.703,102.61 221.037,101.11 219.5,100C 216.183,99.5017 212.85,99.335 209.5,99.5C 210.107,95.0449 210.107,91.0449 209.5,87.5C 209.5,86.1667 209.5,84.8333 209.5,83.5C 211.925,78.7388 215.592,75.4055 220.5,73.5 Z"/></g>
<g><path style="opacity:1" fill="#f5f4f9" d="M 126.5,94.5 C 126.833,94.5 127.167,94.5 127.5,94.5C 128.828,97.4971 130.161,100.497 131.5,103.5C 133.463,109.076 135.796,114.409 138.5,119.5C 139.931,120.78 140.598,122.447 140.5,124.5C 140.171,127.228 140.837,129.562 142.5,131.5C 143.167,132.833 143.833,134.167 144.5,135.5C 145.554,140.597 146.887,145.597 148.5,150.5C 148.294,153.495 148.96,156.162 150.5,158.5C 151.159,161.455 151.492,164.455 151.5,167.5C 151.259,169.898 151.926,171.898 153.5,173.5C 154.074,179.484 154.407,185.484 154.5,191.5C 154.383,197.69 154.716,203.857 155.5,210C 155.431,211.986 154.765,213.486 153.5,214.5C 153.737,213.209 153.404,212.209 152.5,211.5C 152.843,209.517 152.176,208.183 150.5,207.5C 150.5,207.167 150.5,206.833 150.5,206.5C 150.065,203.843 149.065,201.509 147.5,199.5C 147.167,198.5 146.5,197.833 145.5,197.5C 145.5,196.5 145.5,195.5 145.5,194.5C 145.245,192.033 144.245,190.033 142.5,188.5C 142.5,187.833 142.5,187.167 142.5,186.5C 142.573,184.973 141.906,183.973 140.5,183.5C 140.167,181.5 139.833,179.5 139.5,177.5C 139.448,174.654 138.448,172.32 136.5,170.5C 136.386,168.282 135.72,166.282 134.5,164.5C 134.01,161.345 133.344,158.345 132.5,155.5C 131.833,154.5 131.167,153.5 130.5,152.5C 129.731,148.014 128.731,143.68 127.5,139.5C 127.768,137.901 127.434,136.568 126.5,135.5C 125.701,130.675 124.701,126.008 123.5,121.5C 122.656,117.901 122.323,114.234 122.5,110.5C 122.171,104.463 122.504,98.4632 123.5,92.5C 124.518,93.1925 125.518,93.8592 126.5,94.5 Z"/></g>
<g><path style="opacity:1" fill="#f5f4f9" d="M 202.5,119.5 C 202.167,122.167 201.833,124.833 201.5,127.5C 201.768,129.099 201.434,130.432 200.5,131.5C 199.656,134.345 198.99,137.345 198.5,140.5C 198.483,142.565 198.15,144.565 197.5,146.5C 197.5,146.833 197.5,147.167 197.5,147.5C 196.069,148.78 195.402,150.447 195.5,152.5C 195.037,155.221 194.371,157.888 193.5,160.5C 191.464,162.206 190.464,164.539 190.5,167.5C 190.5,168.167 190.5,168.833 190.5,169.5C 188.621,170.895 187.621,172.895 187.5,175.5C 187.494,179.157 186.494,182.49 184.5,185.5C 184.5,186.5 184.5,187.5 184.5,188.5C 183.5,188.833 182.833,189.5 182.5,190.5C 181.5,190.5 180.5,190.5 179.5,190.5C 178.282,195.822 176.282,200.822 173.5,205.5C 172.505,199.872 172.171,194.206 172.5,188.5C 172.5,185.5 172.5,182.5 172.5,179.5C 173.404,178.791 173.737,177.791 173.5,176.5C 174.785,173.411 175.451,170.078 175.5,166.5C 175.401,163.763 175.735,161.096 176.5,158.5C 176.5,158.167 176.5,157.833 176.5,157.5C 177.785,154.411 178.451,151.078 178.5,147.5C 180.007,143.307 181.34,138.974 182.5,134.5C 183.931,133.22 184.598,131.553 184.5,129.5C 187.508,125.796 189.175,121.463 189.5,116.5C 189.875,114.302 190.542,112.302 191.5,110.5C 192.869,106.758 194.536,103.091 196.5,99.5C 199.324,99.0107 200.657,97.344 200.5,94.5C 202.124,94.6399 203.29,93.9733 204,92.5C 204.167,93.6667 204.333,94.8333 204.5,96C 202.761,103.721 202.094,111.554 202.5,119.5 Z"/></g>
<g><path style="opacity:1" fill="#4f7797" d="M 87.5,95.5 C 82.049,94.0149 76.7157,94.3483 71.5,96.5C 72.0577,95.2101 73.0577,94.3768 74.5,94C 78.5,93.3333 82.5,93.3333 86.5,94C 87.056,94.3826 87.3893,94.8826 87.5,95.5 Z"/></g>
<g><path style="opacity:1" fill="#436b90" d="M 253.5,95.5 C 248.095,94.5095 242.761,94.8428 237.5,96.5C 237.62,95.4138 238.287,94.7472 239.5,94.5C 244.437,92.942 249.103,93.2753 253.5,95.5 Z"/></g>
<g><path style="opacity:1" fill="#b1c0cf" d="M 201.5,91.5 C 201.443,92.609 201.11,93.609 200.5,94.5C 200.657,97.344 199.324,99.0107 196.5,99.5C 197.669,96.4887 199.336,93.822 201.5,91.5 Z"/></g>
<g><path style="opacity:1" fill="#436d90" d="M 209.5,83.5 C 209.5,84.8333 209.5,86.1667 209.5,87.5C 208.728,91.7496 208.228,96.0829 208,100.5C 207.617,101.056 207.117,101.389 206.5,101.5C 206.998,96.8478 207.331,92.1811 207.5,87.5C 208.167,86.1667 208.833,84.8333 209.5,83.5 Z"/></g>
<g><path style="opacity:1" fill="#7493af" d="M 237.5,96.5 C 236.833,97.8333 235.833,98.8333 234.5,99.5C 234.5,97.5 235.5,96.5 237.5,96.5 Z"/></g>
<g><path style="opacity:1" fill="#084b7c" d="M 183.5,88.5 C 187.924,90.244 192.757,91.244 198,91.5C 199.727,91.3535 199.894,90.6869 198.5,89.5C 199.689,88.5713 201.022,88.238 202.5,88.5C 201.89,89.391 201.557,90.391 201.5,91.5C 199.336,93.822 197.669,96.4887 196.5,99.5C 194.536,103.091 192.869,106.758 191.5,110.5C 191.79,106.446 191.123,105.946 189.5,109C 179.833,109.667 170.167,109.667 160.5,109C 159.5,107 158.5,107 157.5,109C 150.321,109.171 143.321,109.671 136.5,110.5C 134.652,108.267 132.985,105.934 131.5,103.5C 130.161,100.497 128.828,97.4971 127.5,94.5C 127.5,93.1667 127.5,91.8333 127.5,90.5C 133.581,90.8468 139.581,90.8468 145.5,90.5C 146.694,91.2719 147.694,92.2719 148.5,93.5C 148.427,95.0269 149.094,96.0269 150.5,96.5C 150.833,97.5 151.5,98.1667 152.5,98.5C 152.414,99.4959 152.748,100.329 153.5,101C 155.725,101.561 157.725,102.561 159.5,104C 162.863,104.927 165.863,104.427 168.5,102.5C 169.167,102.167 169.833,101.833 170.5,101.5C 174.797,100.536 177.464,97.8696 178.5,93.5C 178.932,92.2905 179.599,91.2905 180.5,90.5C 181.5,89.8333 182.5,89.1667 183.5,88.5 Z"/></g>
<g><path style="opacity:1" fill="#4e7596" d="M 178.5,93.5 C 177.464,97.8696 174.797,100.536 170.5,101.5C 173.5,99.1667 176.167,96.5 178.5,93.5 Z"/></g>
<g><path style="opacity:1" fill="#7f9eb5" d="M 148.5,93.5 C 149.906,93.9731 150.573,94.9731 150.5,96.5C 149.094,96.0269 148.427,95.0269 148.5,93.5 Z"/></g>
<g><path style="opacity:1" fill="#a7b6c5" d="M 152.5,98.5 C 157.152,102.049 162.485,103.382 168.5,102.5C 165.863,104.427 162.863,104.927 159.5,104C 157.725,102.561 155.725,101.561 153.5,101C 152.748,100.329 152.414,99.4959 152.5,98.5 Z"/></g>
<g><path style="opacity:1" fill="#0c4c7d" d="M 106.5,72.5 C 107.583,72.5394 108.583,72.8728 109.5,73.5C 115.107,78.3912 118.441,84.3912 119.5,91.5C 119.492,98.1241 120.492,104.457 122.5,110.5C 122.323,114.234 122.656,117.901 123.5,121.5C 121.92,119.283 120.92,116.616 120.5,113.5C 116.235,114.439 111.902,114.772 107.5,114.5C 107.706,111.505 107.04,108.838 105.5,106.5C 104.554,96.2049 104.554,85.8715 105.5,75.5C 105.557,74.391 105.89,73.391 106.5,72.5 Z"/></g>
<g><path style="opacity:1" fill="#4c7494" d="M 66.5,101.5 C 65.3274,106.191 65.3274,110.858 66.5,115.5C 65.8826,115.389 65.3826,115.056 65,114.5C 64.8333,112.667 64.6667,110.833 64.5,109C 64.2999,106.134 64.9666,103.634 66.5,101.5 Z"/></g>
<g><path style="opacity:1" fill="#064775" d="M 87.5,95.5 C 89.0103,96.8361 90.6769,98.0027 92.5,99C 93.8228,99.8159 94.4894,100.983 94.5,102.5C 95.8333,107.167 95.8333,111.833 94.5,116.5C 88.7254,124.58 81.0587,126.746 71.5,123C 69.5854,120.6 67.9188,118.1 66.5,115.5C 65.3274,110.858 65.3274,106.191 66.5,101.5C 67.8333,99.5 69.5,97.8333 71.5,96.5C 76.7157,94.3483 82.049,94.0149 87.5,95.5 Z"/></g>
<g><path style="opacity:1" fill="#92a6b8" d="M 94.5,102.5 C 95.1174,102.611 95.6174,102.944 96,103.5C 96.1667,105.667 96.3333,107.833 96.5,110C 96.4668,112.61 95.8001,114.777 94.5,116.5C 95.8333,111.833 95.8333,107.167 94.5,102.5 Z"/></g>
<g><path style="opacity:1" fill="#094875" d="M 253.5,95.5 C 257.565,97.2329 260.232,100.233 261.5,104.5C 261.533,108.869 261.2,113.202 260.5,117.5C 258.554,118.035 257.554,119.368 257.5,121.5C 255.973,121.427 254.973,122.094 254.5,123.5C 249.897,124.383 245.23,124.717 240.5,124.5C 236.082,122.417 233.082,119.084 231.5,114.5C 231.231,110.069 231.564,105.735 232.5,101.5C 232.5,100.167 233.167,99.5 234.5,99.5C 235.833,98.8333 236.833,97.8333 237.5,96.5C 242.761,94.8428 248.095,94.5095 253.5,95.5 Z"/></g>
<g><path style="opacity:1" fill="#839cb0" d="M 261.5,104.5 C 262.161,106.134 262.494,107.967 262.5,110C 262.7,112.866 262.033,115.366 260.5,117.5C 261.2,113.202 261.533,108.869 261.5,104.5 Z"/></g>
<g><path style="opacity:1" fill="#8b9fb2" d="M 131.5,103.5 C 132.985,105.934 134.652,108.267 136.5,110.5C 137.167,113.5 137.833,116.5 138.5,119.5C 135.796,114.409 133.463,109.076 131.5,103.5 Z"/></g>
<g><path style="opacity:1" fill="#7c93aa" d="M 232.5,101.5 C 231.564,105.735 231.231,110.069 231.5,114.5C 229.218,111.154 228.885,107.487 230.5,103.5C 230.747,102.287 231.414,101.62 232.5,101.5 Z"/></g>
<g><path style="opacity:1" fill="#09426d" d="M 105.5,106.5 C 107.04,108.838 107.706,111.505 107.5,114.5C 111.902,114.772 116.235,114.439 120.5,113.5C 120.92,116.616 121.92,119.283 123.5,121.5C 124.701,126.008 125.701,130.675 126.5,135.5C 124.744,134.448 124.077,132.781 124.5,130.5C 118.5,130.5 112.5,130.5 106.5,130.5C 106.167,128.5 105.833,126.5 105.5,124.5C 105.5,118.5 105.5,112.5 105.5,106.5 Z"/></g>
<g><path style="opacity:1" fill="#05436f" d="M 191.5,110.5 C 190.542,112.302 189.875,114.302 189.5,116.5C 187.872,118.988 186.538,121.655 185.5,124.5C 183.952,124.821 183.285,125.821 183.5,127.5C 182.357,127.908 181.357,128.575 180.5,129.5C 169.135,130.811 157.802,130.811 146.5,129.5C 144.717,131.023 144.051,133.023 144.5,135.5C 143.833,134.167 143.167,132.833 142.5,131.5C 142.829,128.772 142.163,126.438 140.5,124.5C 140.598,122.447 139.931,120.78 138.5,119.5C 137.833,116.5 137.167,113.5 136.5,110.5C 143.321,109.671 150.321,109.171 157.5,109C 158.5,107 159.5,107 160.5,109C 170.167,109.667 179.833,109.667 189.5,109C 191.123,105.946 191.79,106.446 191.5,110.5 Z"/></g>
<g><path style="opacity:1" fill="#98acbc" d="M 221.5,104.5 C 221.833,104.5 222.167,104.5 222.5,104.5C 222.233,112.222 222.566,119.889 223.5,127.5C 222.833,127.167 222.167,126.833 221.5,126.5C 221.5,119.167 221.5,111.833 221.5,104.5 Z"/></g>
<g><path style="opacity:1" fill="#02426f" d="M 209.5,87.5 C 210.107,91.0449 210.107,95.0449 209.5,99.5C 212.85,99.335 216.183,99.5017 219.5,100C 221.037,101.11 221.703,102.61 221.5,104.5C 221.5,111.833 221.5,119.167 221.5,126.5C 221.279,127.735 220.612,128.735 219.5,129.5C 214.208,130.495 208.875,130.828 203.5,130.5C 203.737,129.209 203.404,128.209 202.5,127.5C 203.388,124.946 203.721,122.279 203.5,119.5C 204.777,118.306 205.444,116.64 205.5,114.5C 206.023,110.511 206.356,106.511 206.5,102.5C 206.5,102.167 206.5,101.833 206.5,101.5C 207.117,101.389 207.617,101.056 208,100.5C 208.228,96.0829 208.728,91.7496 209.5,87.5 Z"/></g>
<g><path style="opacity:1" fill="#406686" d="M 206.5,102.5 C 206.356,106.511 206.023,110.511 205.5,114.5C 205.444,116.64 204.777,118.306 203.5,119.5C 203.997,113.619 204.997,107.953 206.5,102.5 Z"/></g>
<g><path style="opacity:1" fill="#8aa0b2" d="M 260.5,117.5 C 259.974,119.23 258.974,120.564 257.5,121.5C 257.554,119.368 258.554,118.035 260.5,117.5 Z"/></g>
<g><path style="opacity:1" fill="#c2cbd5" d="M 189.5,116.5 C 189.175,121.463 187.508,125.796 184.5,129.5C 185.038,127.883 185.371,126.216 185.5,124.5C 186.538,121.655 187.872,118.988 189.5,116.5 Z"/></g>
<g><path style="opacity:1" fill="#476585" d="M 185.5,124.5 C 185.371,126.216 185.038,127.883 184.5,129.5C 184.598,131.553 183.931,133.22 182.5,134.5C 182.674,132.139 183.007,129.806 183.5,127.5C 183.285,125.821 183.952,124.821 185.5,124.5 Z"/></g>
<g><path style="opacity:1" fill="#bdc5ce" d="M 254.5,123.5 C 254.389,124.117 254.056,124.617 253.5,125C 249.572,126.325 245.572,126.658 241.5,126C 240.944,125.617 240.611,125.117 240.5,124.5C 245.23,124.717 249.897,124.383 254.5,123.5 Z"/></g>
<g><path style="opacity:1" fill="#527490" d="M 202.5,119.5 C 202.833,119.5 203.167,119.5 203.5,119.5C 203.721,122.279 203.388,124.946 202.5,127.5C 202.167,127.5 201.833,127.5 201.5,127.5C 201.833,124.833 202.167,122.167 202.5,119.5 Z"/></g>
<g><path style="opacity:1" fill="#0d3d62" d="M 104.5,124.5 C 104.833,124.5 105.167,124.5 105.5,124.5C 105.833,126.5 106.167,128.5 106.5,130.5C 112.5,130.5 118.5,130.5 124.5,130.5C 124.077,132.781 124.744,134.448 126.5,135.5C 127.434,136.568 127.768,137.901 127.5,139.5C 125.349,135.719 124.349,136.386 124.5,141.5C 89.7603,141.826 55.0937,141.493 20.5,140.5C 20.8333,139.833 21.1667,139.167 21.5,138.5C 23.9535,136.94 26.6202,135.94 29.5,135.5C 35.6831,134.451 41.6831,133.118 47.5,131.5C 52.9846,130.348 58.6513,130.182 64.5,131C 69.4301,132.241 74.4301,133.075 79.5,133.5C 82.356,135.006 85.5226,135.672 89,135.5C 91.3608,135.496 93.5274,135.163 95.5,134.5C 97.3684,133.737 99.0351,132.737 100.5,131.5C 102.5,131.5 103.5,130.5 103.5,128.5C 104.234,127.292 104.567,125.959 104.5,124.5 Z"/></g>
<g><path style="opacity:1" fill="#a3b2be" d="M 140.5,124.5 C 142.163,126.438 142.829,128.772 142.5,131.5C 140.837,129.562 140.171,127.228 140.5,124.5 Z"/></g>
<g><path style="opacity:1" fill="#073b61" d="M 221.5,126.5 C 222.167,126.833 222.833,127.167 223.5,127.5C 224.905,131.236 227.571,133.569 231.5,134.5C 233.134,135.161 234.967,135.494 237,135.5C 243.889,134.553 250.722,133.553 257.5,132.5C 264.828,131.217 272.162,131.217 279.5,132.5C 282.86,132.616 286.193,132.949 289.5,133.5C 292.301,134.766 295.301,135.599 298.5,136C 301.314,137.054 303.647,138.554 305.5,140.5C 270.337,141.498 235.004,141.832 199.5,141.5C 199.88,143.698 199.213,145.365 197.5,146.5C 198.15,144.565 198.483,142.565 198.5,140.5C 200.388,138.012 201.055,135.012 200.5,131.5C 201.434,130.432 201.768,129.099 201.5,127.5C 201.833,127.5 202.167,127.5 202.5,127.5C 203.404,128.209 203.737,129.209 203.5,130.5C 208.875,130.828 214.208,130.495 219.5,129.5C 220.612,128.735 221.279,127.735 221.5,126.5 Z"/></g>
<g><path style="opacity:1" fill="#657e93" d="M 102.5,128.5 C 102.833,128.5 103.167,128.5 103.5,128.5C 103.5,130.5 102.5,131.5 100.5,131.5C 101.167,130.5 101.833,129.5 102.5,128.5 Z"/></g>
<g><path style="opacity:1" fill="#073a5f" d="M 183.5,127.5 C 183.007,129.806 182.674,132.139 182.5,134.5C 181.34,138.974 180.007,143.307 178.5,147.5C 177.691,149.028 177.024,150.694 176.5,152.5C 167.435,151.864 158.769,152.53 150.5,154.5C 149.833,153.167 149.167,151.833 148.5,150.5C 146.887,145.597 145.554,140.597 144.5,135.5C 144.051,133.023 144.717,131.023 146.5,129.5C 157.802,130.811 169.135,130.811 180.5,129.5C 181.357,128.575 182.357,127.908 183.5,127.5 Z"/></g>
<g><path style="opacity:1" fill="#74879c" d="M 279.5,131.5 C 279.5,131.833 279.5,132.167 279.5,132.5C 272.162,131.217 264.828,131.217 257.5,132.5C 257.5,132.167 257.5,131.833 257.5,131.5C 264.833,130.167 272.167,130.167 279.5,131.5 Z"/></g>
<g><path style="opacity:1" fill="#b4bfca" d="M 279.5,132.5 C 279.5,132.167 279.5,131.833 279.5,131.5C 282.187,131.336 284.854,131.503 287.5,132C 288.416,132.278 289.082,132.778 289.5,133.5C 286.193,132.949 282.86,132.616 279.5,132.5 Z"/></g>
<g><path style="opacity:1" fill="#8497a9" d="M 47.5,131.5 C 41.6831,133.118 35.6831,134.451 29.5,135.5C 35.1005,132.936 41.1005,131.603 47.5,131.5 Z"/></g>
<g><path style="opacity:1" fill="#92a1b1" d="M 79.5,133.5 C 84.7968,134.275 90.1301,134.608 95.5,134.5C 93.5274,135.163 91.3608,135.496 89,135.5C 85.5226,135.672 82.356,135.006 79.5,133.5 Z"/></g>
<g><path style="opacity:1" fill="#acb8c4" d="M 257.5,131.5 C 257.5,131.833 257.5,132.167 257.5,132.5C 250.722,133.553 243.889,134.553 237,135.5C 234.967,135.494 233.134,135.161 231.5,134.5C 240.203,133.708 248.869,132.708 257.5,131.5 Z"/></g>
<g><path style="opacity:1" fill="#083659" d="M 127.5,139.5 C 128.731,143.68 129.731,148.014 130.5,152.5C 129.839,151.282 129.172,149.949 128.5,148.5C 127.571,149.689 127.238,151.022 127.5,152.5C 112.921,152.824 98.4215,152.49 84,151.5C 81.9307,152.264 79.764,152.764 77.5,153C 78.756,153.417 79.4226,154.25 79.5,155.5C 78.0048,155.011 76.6715,154.345 75.5,153.5C 73.1042,151.977 70.4375,150.977 67.5,150.5C 66.5,149.833 65.5,149.167 64.5,148.5C 62.4855,147.076 60.1522,146.41 57.5,146.5C 55.901,146.768 54.5676,146.434 53.5,145.5C 52.4324,144.566 51.099,144.232 49.5,144.5C 48.7375,143.732 47.7375,143.232 46.5,143C 37.3238,142.176 28.3238,142.343 19.5,143.5C 19.5,143.833 19.5,144.167 19.5,144.5C 18.448,144.649 17.448,144.483 16.5,144C 17.8228,143.184 18.4894,142.017 18.5,140.5C 19.1667,140.5 19.8333,140.5 20.5,140.5C 55.0937,141.493 89.7603,141.826 124.5,141.5C 124.349,136.386 125.349,135.719 127.5,139.5 Z"/></g>
<g><path style="opacity:1" fill="#7e90a1" d="M 21.5,138.5 C 21.1667,139.167 20.8333,139.833 20.5,140.5C 19.8333,140.5 19.1667,140.5 18.5,140.5C 18.9731,139.094 19.9731,138.427 21.5,138.5 Z"/></g>
<g><path style="opacity:1" fill="#587288" d="M 200.5,131.5 C 201.055,135.012 200.388,138.012 198.5,140.5C 198.99,137.345 199.656,134.345 200.5,131.5 Z"/></g>
<g><path style="opacity:1" fill="#445c77" d="M 19.5,143.5 C 28.3238,142.343 37.3238,142.176 46.5,143C 47.7375,143.232 48.7375,143.732 49.5,144.5C 46.5176,144.037 43.5176,143.704 40.5,143.5C 33.5,143.5 26.5,143.5 19.5,143.5 Z"/></g>
<g><path style="opacity:1" fill="#043558" d="M 305.5,140.5 C 305.833,140.5 306.167,140.5 306.5,140.5C 296.833,141.833 287.167,143.167 277.5,144.5C 275.143,144.337 272.81,144.503 270.5,145C 269.944,145.383 269.611,145.883 269.5,146.5C 268.041,146.433 266.708,146.766 265.5,147.5C 259.973,148.928 254.64,150.928 249.5,153.5C 233.008,152.503 216.342,152.17 199.5,152.5C 199.923,150.219 199.256,148.552 197.5,147.5C 197.5,147.167 197.5,146.833 197.5,146.5C 199.213,145.365 199.88,143.698 199.5,141.5C 235.004,141.832 270.337,141.498 305.5,140.5 Z"/></g>
<g><path style="opacity:1" fill="#3a5371" d="M 306.5,140.5 C 307.609,140.557 308.609,140.89 309.5,141.5C 311.137,143.124 310.803,144.124 308.5,144.5C 305.885,143.731 303.219,143.397 300.5,143.5C 295.5,143.5 290.5,143.5 285.5,143.5C 282.721,143.279 280.054,143.612 277.5,144.5C 287.167,143.167 296.833,141.833 306.5,140.5 Z"/></g>
<g><path style="opacity:1" fill="#6c7e91" d="M 18.5,140.5 C 18.4894,142.017 17.8228,143.184 16.5,144C 17.448,144.483 18.448,144.649 19.5,144.5C 13.177,145.686 12.8436,144.352 18.5,140.5 Z"/></g>
<g><path style="opacity:1" fill="#b9c2ca" d="M 40.5,143.5 C 43.5176,143.704 46.5176,144.037 49.5,144.5C 51.099,144.232 52.4324,144.566 53.5,145.5C 48.706,146.097 44.3727,145.43 40.5,143.5 Z"/></g>
<g><path style="opacity:1" fill="#8292a3" d="M 285.5,143.5 C 280.342,144.818 275.009,145.818 269.5,146.5C 269.611,145.883 269.944,145.383 270.5,145C 272.81,144.503 275.143,144.337 277.5,144.5C 280.054,143.612 282.721,143.279 285.5,143.5 Z"/></g>
<g><path style="opacity:1" fill="#b3bbc6" d="M 309.5,141.5 C 311.176,142.183 311.843,143.517 311.5,145.5C 307.351,146.08 303.684,145.414 300.5,143.5C 303.219,143.397 305.885,143.731 308.5,144.5C 310.803,144.124 311.137,143.124 309.5,141.5 Z"/></g>
<g><path style="opacity:1" fill="#7e8d9d" d="M 57.5,146.5 C 60.1522,146.41 62.4855,147.076 64.5,148.5C 61.7718,148.829 59.4385,148.163 57.5,146.5 Z"/></g>
<g><path style="opacity:1" fill="#485f76" d="M 197.5,147.5 C 197.923,149.781 197.256,151.448 195.5,152.5C 195.402,150.447 196.069,148.78 197.5,147.5 Z"/></g>
<g><path style="opacity:1" fill="#9eaab5" d="M 265.5,147.5 C 257.335,152.011 249.002,156.344 240.5,160.5C 242.939,157.447 245.939,155.114 249.5,153.5C 254.64,150.928 259.973,148.928 265.5,147.5 Z"/></g>
<g><path style="opacity:1" fill="#073150" d="M 130.5,152.5 C 131.167,153.5 131.833,154.5 132.5,155.5C 132.5,157.167 132.5,158.833 132.5,160.5C 120.615,162.492 108.615,162.992 96.5,162C 96,161.5 95.5,161 95,160.5C 94.51,161.793 94.3433,163.127 94.5,164.5C 88.9946,162.251 83.9946,159.251 79.5,155.5C 79.4226,154.25 78.756,153.417 77.5,153C 79.764,152.764 81.9307,152.264 84,151.5C 98.4215,152.49 112.921,152.824 127.5,152.5C 127.238,151.022 127.571,149.689 128.5,148.5C 129.172,149.949 129.839,151.282 130.5,152.5 Z"/></g>
<g><path style="opacity:1" fill="#697d90" d="M 178.5,147.5 C 178.451,151.078 177.785,154.411 176.5,157.5C 176.5,155.833 176.5,154.167 176.5,152.5C 177.024,150.694 177.691,149.028 178.5,147.5 Z"/></g>
<g><path style="opacity:1" fill="#9ca8b5" d="M 67.5,150.5 C 70.4375,150.977 73.1042,151.977 75.5,153.5C 72.3741,153.515 69.7074,152.515 67.5,150.5 Z"/></g>
<g><path style="opacity:1" fill="#06304f" d="M 176.5,152.5 C 176.5,154.167 176.5,155.833 176.5,157.5C 176.5,157.833 176.5,158.167 176.5,158.5C 175.833,158.833 175.167,159.167 174.5,159.5C 173.733,160.172 173.066,161.005 172.5,162C 166.804,162.17 161.138,162.67 155.5,163.5C 155.192,164.308 154.692,164.975 154,165.5C 153.667,163.833 153.333,162.167 153,160.5C 152.503,162.81 152.337,165.143 152.5,167.5C 152.167,167.5 151.833,167.5 151.5,167.5C 151.492,164.455 151.159,161.455 150.5,158.5C 150.5,157.167 150.5,155.833 150.5,154.5C 158.769,152.53 167.435,151.864 176.5,152.5 Z"/></g>
<g><path style="opacity:1" fill="#063150" d="M 197.5,147.5 C 199.256,148.552 199.923,150.219 199.5,152.5C 216.342,152.17 233.008,152.503 249.5,153.5C 245.939,155.114 242.939,157.447 240.5,160.5C 237.605,161.399 234.938,162.733 232.5,164.5C 220.545,162.52 208.212,161.854 195.5,162.5C 195.649,161.448 195.483,160.448 195,159.5C 194.764,161.119 193.931,162.119 192.5,162.5C 192.833,161.833 193.167,161.167 193.5,160.5C 194.371,157.888 195.037,155.221 195.5,152.5C 197.256,151.448 197.923,149.781 197.5,147.5 Z"/></g>
<g><path style="opacity:1" fill="#7e8d9d" d="M 148.5,150.5 C 149.167,151.833 149.833,153.167 150.5,154.5C 150.5,155.833 150.5,157.167 150.5,158.5C 148.96,156.162 148.294,153.495 148.5,150.5 Z"/></g>
<g><path style="opacity:1" fill="#b0b7c0" d="M 193.5,160.5 C 193.167,161.167 192.833,161.833 192.5,162.5C 192.598,164.553 191.931,166.22 190.5,167.5C 190.464,164.539 191.464,162.206 193.5,160.5 Z"/></g>
<g><path style="opacity:1" fill="#4d6075" d="M 176.5,158.5 C 175.735,161.096 175.401,163.763 175.5,166.5C 175.167,166.5 174.833,166.5 174.5,166.5C 174.5,164.167 174.5,161.833 174.5,159.5C 175.167,159.167 175.833,158.833 176.5,158.5 Z"/></g>
<g><path style="opacity:1" fill="#506478" d="M 132.5,155.5 C 133.344,158.345 134.01,161.345 134.5,164.5C 132.824,163.817 132.157,162.483 132.5,160.5C 132.5,158.833 132.5,157.167 132.5,155.5 Z"/></g>
<g><path style="opacity:1" fill="#bbc1c9" d="M 240.5,160.5 C 238.587,164.072 235.587,166.072 231.5,166.5C 231.328,165.508 231.662,164.842 232.5,164.5C 234.938,162.733 237.605,161.399 240.5,160.5 Z"/></g>
<g><path style="opacity:1" fill="#092a44" d="M 132.5,160.5 C 132.157,162.483 132.824,163.817 134.5,164.5C 135.72,166.282 136.386,168.282 136.5,170.5C 136.643,173.385 137.643,175.718 139.5,177.5C 139.833,179.5 140.167,181.5 140.5,183.5C 139.373,184.122 138.373,184.955 137.5,186C 131.584,186.807 125.75,186.641 120,185.5C 119.536,186.094 119.369,186.761 119.5,187.5C 119.167,187.5 118.833,187.5 118.5,187.5C 114.515,183.846 110.848,179.846 107.5,175.5C 102.769,172.086 98.4357,168.419 94.5,164.5C 94.3433,163.127 94.51,161.793 95,160.5C 95.5,161 96,161.5 96.5,162C 108.615,162.992 120.615,162.492 132.5,160.5 Z"/></g>
<g><path style="opacity:1" fill="#0b2c46" d="M 174.5,159.5 C 174.5,161.833 174.5,164.167 174.5,166.5C 173.521,169.625 173.187,172.958 173.5,176.5C 173.737,177.791 173.404,178.791 172.5,179.5C 172.785,177.712 172.452,176.045 171.5,174.5C 170.692,174.808 170.025,175.308 169.5,176C 164.845,176.499 160.179,176.666 155.5,176.5C 155.5,181.5 155.5,186.5 155.5,191.5C 155.167,191.5 154.833,191.5 154.5,191.5C 154.407,185.484 154.074,179.484 153.5,173.5C 153.483,171.435 153.15,169.435 152.5,167.5C 152.337,165.143 152.503,162.81 153,160.5C 153.333,162.167 153.667,163.833 154,165.5C 154.692,164.975 155.192,164.308 155.5,163.5C 161.138,162.67 166.804,162.17 172.5,162C 173.066,161.005 173.733,160.172 174.5,159.5 Z"/></g>
<g><path style="opacity:1" fill="#092a44" d="M 232.5,164.5 C 231.662,164.842 231.328,165.508 231.5,166.5C 229.368,166.554 228.035,167.554 227.5,169.5C 224.732,171.087 222.065,172.92 219.5,175C 218.748,175.671 218.414,176.504 218.5,177.5C 218.167,177.5 217.833,177.5 217.5,177.5C 215.833,179.167 214.167,180.833 212.5,182.5C 211.306,183.272 210.306,184.272 209.5,185.5C 208.833,185.833 208.167,186.167 207.5,186.5C 199.791,186.731 192.124,186.398 184.5,185.5C 186.494,182.49 187.494,179.157 187.5,175.5C 189.088,173.887 190.088,171.887 190.5,169.5C 190.5,168.833 190.5,168.167 190.5,167.5C 191.931,166.22 192.598,164.553 192.5,162.5C 193.931,162.119 194.764,161.119 195,159.5C 195.483,160.448 195.649,161.448 195.5,162.5C 208.212,161.854 220.545,162.52 232.5,164.5 Z"/></g>
<g><path style="opacity:1" fill="#7c8c9b" d="M 231.5,166.5 C 230.564,167.974 229.23,168.974 227.5,169.5C 228.035,167.554 229.368,166.554 231.5,166.5 Z"/></g>
<g><path style="opacity:1" fill="#9ea7b1" d="M 174.5,166.5 C 174.833,166.5 175.167,166.5 175.5,166.5C 175.451,170.078 174.785,173.411 173.5,176.5C 173.187,172.958 173.521,169.625 174.5,166.5 Z"/></g>
<g><path style="opacity:1" fill="#99a1aa" d="M 136.5,170.5 C 138.448,172.32 139.448,174.654 139.5,177.5C 137.643,175.718 136.643,173.385 136.5,170.5 Z"/></g>
<g><path style="opacity:1" fill="#7e8b9a" d="M 151.5,167.5 C 151.833,167.5 152.167,167.5 152.5,167.5C 153.15,169.435 153.483,171.435 153.5,173.5C 151.926,171.898 151.259,169.898 151.5,167.5 Z"/></g>
<g><path style="opacity:1" fill="#0a2238" d="M 172.5,179.5 C 172.5,182.5 172.5,185.5 172.5,188.5C 170.55,193.735 169.883,199.402 170.5,205.5C 170.167,205.5 169.833,205.5 169.5,205.5C 168.79,203.254 168.29,200.92 168,198.5C 164.617,198.362 161.117,198.696 157.5,199.5C 157.795,201.735 157.461,203.735 156.5,205.5C 156.46,200.807 156.127,196.141 155.5,191.5C 155.5,186.5 155.5,181.5 155.5,176.5C 160.179,176.666 164.845,176.499 169.5,176C 170.025,175.308 170.692,174.808 171.5,174.5C 172.452,176.045 172.785,177.712 172.5,179.5 Z"/></g>
<g><path style="opacity:1" fill="#a8b1bb" d="M 190.5,169.5 C 190.088,171.887 189.088,173.887 187.5,175.5C 187.621,172.895 188.621,170.895 190.5,169.5 Z"/></g>
<g><path style="opacity:1" fill="#bfc5cc" d="M 227.5,169.5 C 225.088,172.917 222.088,175.584 218.5,177.5C 218.414,176.504 218.748,175.671 219.5,175C 222.065,172.92 224.732,171.087 227.5,169.5 Z"/></g>
<g><path style="opacity:1" fill="#a6aeb6" d="M 217.5,177.5 C 217.167,180.5 215.5,182.167 212.5,182.5C 214.167,180.833 215.833,179.167 217.5,177.5 Z"/></g>
<g><path style="opacity:1" fill="#808b99" d="M 140.5,183.5 C 141.906,183.973 142.573,184.973 142.5,186.5C 140.952,186.179 140.285,185.179 140.5,183.5 Z"/></g>
<g><path style="opacity:1" fill="#9aa0a9" d="M 118.5,187.5 C 118.833,187.5 119.167,187.5 119.5,187.5C 121.58,189.573 123.246,191.907 124.5,194.5C 121.757,192.761 119.757,190.427 118.5,187.5 Z"/></g>
<g><path style="opacity:1" fill="#aab0b8" d="M 209.5,185.5 C 208.232,189.767 205.565,192.767 201.5,194.5C 203.909,192.098 205.909,189.431 207.5,186.5C 208.167,186.167 208.833,185.833 209.5,185.5 Z"/></g>
<g><path style="opacity:1" fill="#071f32" d="M 140.5,183.5 C 140.285,185.179 140.952,186.179 142.5,186.5C 142.5,187.167 142.5,187.833 142.5,188.5C 142.755,190.967 143.755,192.967 145.5,194.5C 145.5,195.5 145.5,196.5 145.5,197.5C 146.434,199.239 146.434,200.905 145.5,202.5C 144.59,200.345 143.423,198.345 142,196.5C 137.599,197.467 133.099,197.8 128.5,197.5C 126.97,196.789 125.637,195.789 124.5,194.5C 123.246,191.907 121.58,189.573 119.5,187.5C 119.369,186.761 119.536,186.094 120,185.5C 125.75,186.641 131.584,186.807 137.5,186C 138.373,184.955 139.373,184.122 140.5,183.5 Z"/></g>
<g><path style="opacity:1" fill="#071f33" d="M 184.5,185.5 C 192.124,186.398 199.791,186.731 207.5,186.5C 205.909,189.431 203.909,192.098 201.5,194.5C 200.061,196.36 198.395,198.027 196.5,199.5C 192.916,197.775 188.916,196.775 184.5,196.5C 182.799,197.802 181.632,199.469 181,201.5C 180.51,200.207 180.343,198.873 180.5,197.5C 181.404,196.791 181.737,195.791 181.5,194.5C 183.379,193.105 184.379,191.105 184.5,188.5C 184.5,187.5 184.5,186.5 184.5,185.5 Z"/></g>
<g><path style="opacity:1" fill="#747a83" d="M 142.5,188.5 C 144.245,190.033 145.245,192.033 145.5,194.5C 143.755,192.967 142.755,190.967 142.5,188.5 Z"/></g>
<g><path style="opacity:1" fill="#485564" d="M 184.5,188.5 C 184.379,191.105 183.379,193.105 181.5,194.5C 182.234,193.292 182.567,191.959 182.5,190.5C 182.833,189.5 183.5,188.833 184.5,188.5 Z"/></g>
<g><path style="opacity:1" fill="#0b1b29" d="M 196.5,199.5 C 194.58,202.339 192.913,205.339 191.5,208.5C 190.662,208.842 190.328,209.508 190.5,210.5C 188.169,213.8 185.836,217.134 183.5,220.5C 182.523,222.411 181.857,224.411 181.5,226.5C 181.167,226.5 180.833,226.5 180.5,226.5C 180.649,225.448 180.483,224.448 180,223.5C 178.284,223.411 176.451,223.744 174.5,224.5C 173.824,223.398 173.158,222.398 172.5,221.5C 173.792,212.958 176.458,204.958 180.5,197.5C 180.343,198.873 180.51,200.207 181,201.5C 181.632,199.469 182.799,197.802 184.5,196.5C 188.916,196.775 192.916,197.775 196.5,199.5 Z"/></g>
<g><path style="opacity:1" fill="#8c939b" d="M 201.5,194.5 C 199.145,199.88 195.812,204.546 191.5,208.5C 192.913,205.339 194.58,202.339 196.5,199.5C 198.395,198.027 200.061,196.36 201.5,194.5 Z"/></g>
<g><path style="opacity:1" fill="#c7cacf" d="M 128.5,199.5 C 130.86,202.218 132.86,205.218 134.5,208.5C 130.77,206.719 128.77,203.719 128.5,199.5 Z"/></g>
<g><path style="opacity:1" fill="#d7d8dc" d="M 172.5,188.5 C 172.171,194.206 172.505,199.872 173.5,205.5C 176.282,200.822 178.282,195.822 179.5,190.5C 180.5,190.5 181.5,190.5 182.5,190.5C 182.567,191.959 182.234,193.292 181.5,194.5C 181.737,195.791 181.404,196.791 180.5,197.5C 176.458,204.958 173.792,212.958 172.5,221.5C 170.437,222.711 169.437,221.877 169.5,219C 170.264,214.53 170.597,210.03 170.5,205.5C 169.883,199.402 170.55,193.735 172.5,188.5 Z"/></g>
<g><path style="opacity:1" fill="#b3b6bb" d="M 154.5,191.5 C 154.833,191.5 155.167,191.5 155.5,191.5C 156.127,196.141 156.46,200.807 156.5,205.5C 156.228,209.902 156.561,214.235 157.5,218.5C 156.675,219.386 155.675,219.719 154.5,219.5C 154.634,217.708 154.301,216.042 153.5,214.5C 154.765,213.486 155.431,211.986 155.5,210C 154.716,203.857 154.383,197.69 154.5,191.5 Z"/></g>
<g><path style="opacity:1" fill="#091925" d="M 145.5,197.5 C 146.5,197.833 147.167,198.5 147.5,199.5C 147.552,202.346 148.552,204.68 150.5,206.5C 150.5,206.833 150.5,207.167 150.5,207.5C 150.989,208.995 151.655,210.329 152.5,211.5C 153.404,212.209 153.737,213.209 153.5,214.5C 154.301,216.042 154.634,217.708 154.5,219.5C 155.675,219.719 156.675,219.386 157.5,218.5C 156.561,214.235 156.228,209.902 156.5,205.5C 157.461,203.735 157.795,201.735 157.5,199.5C 161.117,198.696 164.617,198.362 168,198.5C 168.29,200.92 168.79,203.254 169.5,205.5C 168.523,208.287 168.19,211.287 168.5,214.5C 167.883,214.611 167.383,214.944 167,215.5C 166.746,218.195 166.579,220.695 166.5,223C 164.444,223.311 162.444,223.811 160.5,224.5C 156.141,220.875 151.474,220.541 146.5,223.5C 146.629,225.216 146.962,226.883 147.5,228.5C 146.5,228.167 145.833,227.5 145.5,226.5C 143.755,221.216 141.088,216.549 137.5,212.5C 137.446,210.368 136.446,209.035 134.5,208.5C 132.86,205.218 130.86,202.218 128.5,199.5C 128.5,198.833 128.5,198.167 128.5,197.5C 133.099,197.8 137.599,197.467 142,196.5C 143.423,198.345 144.59,200.345 145.5,202.5C 146.434,200.905 146.434,199.239 145.5,197.5 Z"/></g>
<g><path style="opacity:1" fill="#95979b" d="M 147.5,199.5 C 149.065,201.509 150.065,203.843 150.5,206.5C 148.552,204.68 147.552,202.346 147.5,199.5 Z"/></g>
<g><path style="opacity:1" fill="#919295" d="M 150.5,207.5 C 152.176,208.183 152.843,209.517 152.5,211.5C 151.655,210.329 150.989,208.995 150.5,207.5 Z"/></g>
<g><path style="opacity:1" fill="#3d444b" d="M 169.5,205.5 C 169.833,205.5 170.167,205.5 170.5,205.5C 170.597,210.03 170.264,214.53 169.5,219C 169.437,221.877 170.437,222.711 172.5,221.5C 171.817,223.176 170.483,223.843 168.5,223.5C 168.5,220.5 168.5,217.5 168.5,214.5C 168.19,211.287 168.523,208.287 169.5,205.5 Z"/></g>
<g><path style="opacity:1" fill="#babdc3" d="M 137.5,212.5 C 141.088,216.549 143.755,221.216 145.5,226.5C 141.547,222.719 138.88,218.052 137.5,212.5 Z"/></g>
<g><path style="opacity:1" fill="#cfd0d4" d="M 190.5,210.5 C 188.936,214.35 187.27,218.184 185.5,222C 184.535,223.975 183.201,225.475 181.5,226.5C 181.857,224.411 182.523,222.411 183.5,220.5C 185.836,217.134 188.169,213.8 190.5,210.5 Z"/></g>
<g><path style="opacity:1" fill="#080f15" d="M 168.5,214.5 C 168.5,217.5 168.5,220.5 168.5,223.5C 170.483,223.843 171.817,223.176 172.5,221.5C 173.158,222.398 173.824,223.398 174.5,224.5C 176.451,223.744 178.284,223.411 180,223.5C 180.483,224.448 180.649,225.448 180.5,226.5C 178.416,229.053 177.083,232.053 176.5,235.5C 176.5,235.833 176.5,236.167 176.5,236.5C 174.755,238.033 173.755,240.033 173.5,242.5C 173.5,242.833 173.5,243.167 173.5,243.5C 171.446,246.008 170.446,249.008 170.5,252.5C 169.094,252.973 168.427,253.973 168.5,255.5C 167.034,256.347 166.2,257.68 166,259.5C 165.502,262.817 165.335,266.15 165.5,269.5C 164.209,269.737 163.209,269.404 162.5,268.5C 162.982,265.169 161.982,262.503 159.5,260.5C 158.694,257.451 157.694,254.451 156.5,251.5C 156.241,248.728 155.241,246.395 153.5,244.5C 153.5,244.167 153.5,243.833 153.5,243.5C 153.245,241.033 152.245,239.033 150.5,237.5C 149.694,234.451 148.694,231.451 147.5,228.5C 146.962,226.883 146.629,225.216 146.5,223.5C 151.474,220.541 156.141,220.875 160.5,224.5C 162.444,223.811 164.444,223.311 166.5,223C 166.579,220.695 166.746,218.195 167,215.5C 167.383,214.944 167.883,214.611 168.5,214.5 Z"/></g>
<g><path style="opacity:1" fill="#909398" d="M 180.5,226.5 C 180.833,226.5 181.167,226.5 181.5,226.5C 180.193,229.78 178.527,232.78 176.5,235.5C 177.083,232.053 178.416,229.053 180.5,226.5 Z"/></g>
<g><path style="opacity:1" fill="#7f8488" d="M 176.5,236.5 C 176.245,238.967 175.245,240.967 173.5,242.5C 173.755,240.033 174.755,238.033 176.5,236.5 Z"/></g>
<g><path style="opacity:1" fill="#828588" d="M 150.5,237.5 C 152.245,239.033 153.245,241.033 153.5,243.5C 151.755,241.967 150.755,239.967 150.5,237.5 Z"/></g>
<g><path style="opacity:1" fill="#787a7e" d="M 153.5,244.5 C 155.241,246.395 156.241,248.728 156.5,251.5C 154.759,249.605 153.759,247.272 153.5,244.5 Z"/></g>
<g><path style="opacity:1" fill="#989a9e" d="M 173.5,243.5 C 173.117,246.811 172.117,249.811 170.5,252.5C 170.446,249.008 171.446,246.008 173.5,243.5 Z"/></g>
<g><path style="opacity:1" fill="#7f8185" d="M 170.5,252.5 C 170.573,254.027 169.906,255.027 168.5,255.5C 168.427,253.973 169.094,252.973 170.5,252.5 Z"/></g>
<g><path style="opacity:1" fill="#6f6f71" d="M 168.5,255.5 C 167.209,260.221 166.209,264.888 165.5,269.5C 165.335,266.15 165.502,262.817 166,259.5C 166.2,257.68 167.034,256.347 168.5,255.5 Z"/></g>
<g><path style="opacity:1" fill="#abacae" d="M 159.5,260.5 C 161.982,262.503 162.982,265.169 162.5,268.5C 160.661,266.347 159.661,263.68 159.5,260.5 Z"/></g>
</svg>
