<?xml version="1.0" encoding="UTF-8"?>
<!DOCTYPE svg PUBLIC "-//W3C//DTD SVG 1.1//EN" "http://www.w3.org/Graphics/SVG/1.1/DTD/svg11.dtd">
<svg xmlns="http://www.w3.org/2000/svg" version="1.1" width="396px" height="371px" style="shape-rendering:geometricPrecision; text-rendering:geometricPrecision; image-rendering:optimizeQuality; fill-rule:evenodd; clip-rule:evenodd" xmlns:xlink="http://www.w3.org/1999/xlink">
<g><path style="opacity:1" fill="#fefefe" d="M -0.5,-0.5 C 131.5,-0.5 263.5,-0.5 395.5,-0.5C 395.5,123.167 395.5,246.833 395.5,370.5C 263.5,370.5 131.5,370.5 -0.5,370.5C -0.5,246.833 -0.5,123.167 -0.5,-0.5 Z"/></g>
<g><path style="opacity:1" fill="#e02880" d="M 201.5,73.5 C 205.35,73.7007 206.35,75.5341 204.5,79C 200.537,79.1177 199.537,77.2843 201.5,73.5 Z"/></g>
<g><path style="opacity:1" fill="#e53185" d="M 218.5,81.5 C 220.39,81.2965 221.89,81.9632 223,83.5C 233.002,79.9795 237.835,83.6462 237.5,94.5C 237.333,96.8333 237.167,99.1667 237,101.5C 235.604,103.527 233.938,103.86 232,102.5C 231.667,97.8333 231.333,93.1667 231,88.5C 228.667,87.1667 226.333,87.1667 224,88.5C 223.667,92.5 223.333,96.5 223,100.5C 220.888,102.922 218.888,102.922 217,100.5C 216.586,94.0638 217.086,87.7304 218.5,81.5 Z"/></g>
<g><path style="opacity:1" fill="#e62481" d="M 208.5,94.5 C 208.5,96.8333 208.5,99.1667 208.5,101.5C 207.167,101.5 205.833,101.5 204.5,101.5C 204.737,100.209 204.404,99.209 203.5,98.5C 201.895,93.4679 201.562,88.3013 202.5,83C 204.112,82.2797 205.612,82.4464 207,83.5C 207.42,87.1914 207.92,90.8581 208.5,94.5 Z"/></g>
<g><path style="opacity:1" fill="#e52782" d="M 167.5,84.5 C 169.144,84.2865 170.644,84.6198 172,85.5C 176.677,93.1839 180.51,101.184 183.5,109.5C 180.143,109.106 177.81,110.439 176.5,113.5C 164.797,117.311 159.297,112.977 160,100.5C 162.33,97.0799 165.496,94.7466 169.5,93.5C 168.46,91.4771 167.46,89.4771 166.5,87.5C 166.685,86.4163 167.018,85.4163 167.5,84.5 Z"/></g>
<g><path style="opacity:1" fill="#e42682" d="M 269.5,84.5 C 271.948,84.0847 273.281,85.0847 273.5,87.5C 272.937,90.8623 271.603,93.8623 269.5,96.5C 272.394,98.8673 275.56,100.867 279,102.5C 279.772,102.355 280.439,102.022 281,101.5C 282.039,99.2537 283.206,97.087 284.5,95C 287.237,93.9202 288.904,94.7536 289.5,97.5C 286.017,103.796 282.517,110.13 279,116.5C 276.561,120.492 274.394,120.492 272.5,116.5C 273.389,113.611 274.722,110.945 276.5,108.5C 273.588,105.044 269.921,103.21 265.5,103C 264.319,106.218 262.319,108.718 259.5,110.5C 257.5,110.5 256.5,109.5 256.5,107.5C 260.576,99.6812 264.909,92.0145 269.5,84.5 Z"/></g>
<g><path style="opacity:1" fill="#fcf1f8" d="M 168.5,99.5 C 175.297,100.107 176.964,103.274 173.5,109C 167.507,110.668 165.007,108.502 166,102.5C 166.698,101.309 167.531,100.309 168.5,99.5 Z"/></g>
<g><path style="opacity:1" fill="#de5797" d="M 208.5,94.5 C 209.817,97.2301 209.817,100.063 208.5,103C 204.508,104.177 202.842,102.677 203.5,98.5C 204.404,99.209 204.737,100.209 204.5,101.5C 205.833,101.5 207.167,101.5 208.5,101.5C 208.5,99.1667 208.5,96.8333 208.5,94.5 Z"/></g>
<g><path style="opacity:1" fill="#e42e84" d="M 142.5,111.5 C 150.264,111.072 156.43,114.072 161,120.5C 161.723,123.125 160.723,124.792 158,125.5C 154.882,123.385 152.048,120.885 149.5,118C 145.002,116.523 142.835,118.023 143,122.5C 145.726,125.717 148.226,129.05 150.5,132.5C 150.566,134.266 149.732,135.266 148,135.5C 143.378,131.881 139.045,127.881 135,123.5C 134.51,122.207 134.343,120.873 134.5,119.5C 135.675,119.719 136.675,119.386 137.5,118.5C 138.804,115.87 140.47,113.537 142.5,111.5 Z"/></g>
<g><path style="opacity:1" fill="#ea1a80" d="M 218.5,183.5 C 218.5,184.167 218.5,184.833 218.5,185.5C 196.662,174.851 187.162,181.518 190,205.5C 191.413,208.661 193.08,211.661 195,214.5C 203.193,221.502 211.027,228.835 218.5,236.5C 219.301,238.042 219.634,239.708 219.5,241.5C 212.883,240.025 206.883,237.192 201.5,233C 195.767,231.885 190.267,230.051 185,227.5C 175.236,230.592 167.069,236.092 160.5,244C 159.833,244.667 159.167,244.667 158.5,244C 145.056,225.626 140.056,205.126 143.5,182.5C 144.924,180.485 145.59,178.152 145.5,175.5C 159.823,135.705 188.156,117.539 230.5,121C 270.873,129.592 292.873,154.425 296.5,195.5C 296.321,202.575 295.488,209.575 294,216.5C 293.577,217.956 292.744,218.456 291.5,218C 288.667,214.5 285.833,211 283,207.5C 284.572,166.085 265.072,141.585 224.5,134C 193.974,133.177 172.474,146.677 160,174.5C 156.275,186.331 155.608,198.331 158,210.5C 163.333,201.833 168.667,193.167 174,184.5C 179.727,178.057 186.56,173.224 194.5,170C 199.94,168.826 204.94,169.826 209.5,173C 213.114,176.103 216.114,179.603 218.5,183.5 Z"/></g>
<g><path style="opacity:1" fill="#e52381" d="M 304.5,120.5 C 304.5,122.167 304.5,123.833 304.5,125.5C 305.5,125.5 306.5,125.5 307.5,125.5C 307.5,126.5 307.5,127.5 307.5,128.5C 304.703,130.795 302.036,133.295 299.5,136C 297.559,137.903 295.226,138.736 292.5,138.5C 292.5,137.167 292.5,135.833 292.5,134.5C 284.941,132.036 282.774,127.036 286,119.5C 289.438,114.919 293.938,113.419 299.5,115C 302.079,116.076 303.746,117.909 304.5,120.5 Z"/></g>
<g><path style="opacity:1" fill="#fbedf6" d="M 292.5,120.5 C 300.877,120.274 302.544,123.441 297.5,130C 292.967,131.471 290.633,129.804 290.5,125C 290.519,123.167 291.185,121.667 292.5,120.5 Z"/></g>
<g><path style="opacity:1" fill="#e05c9c" d="M 304.5,120.5 C 305.404,121.209 305.737,122.209 305.5,123.5C 308.68,123.176 309.847,124.51 309,127.5C 308.617,128.056 308.117,128.389 307.5,128.5C 307.5,127.5 307.5,126.5 307.5,125.5C 306.5,125.5 305.5,125.5 304.5,125.5C 304.5,123.833 304.5,122.167 304.5,120.5 Z"/></g>
<g><path style="opacity:1" fill="#e42481" d="M 125.5,132.5 C 132.174,134.338 138.174,137.504 143.5,142C 141.178,145.509 139.345,149.343 138,153.5C 130.561,158.44 124.561,157.106 120,149.5C 118.109,143.519 119.943,139.186 125.5,136.5C 124.193,135.135 124.193,133.802 125.5,132.5 Z"/></g>
<g><path style="opacity:1" fill="#e42b83" d="M 313.5,136.5 C 314.833,136.5 316.167,136.5 317.5,136.5C 316.966,140.478 318.466,143.478 322,145.5C 323.256,150.229 322.089,154.229 318.5,157.5C 315.061,159.303 311.561,160.97 308,162.5C 305.681,161.591 305.014,159.925 306,157.5C 309.499,155.752 312.832,153.752 316,151.5C 317.261,145.92 315.094,144.087 309.5,146C 307.06,147.303 304.56,148.47 302,149.5C 300.115,149.138 299.281,147.971 299.5,146C 299.833,145.167 300.167,144.333 300.5,143.5C 305.282,141.709 309.616,139.375 313.5,136.5 Z"/></g>
<g><path style="opacity:1" fill="#fbeef6" d="M 127.5,140.5 C 134.524,140.489 136.524,143.489 133.5,149.5C 125.415,150.86 123.415,147.86 127.5,140.5 Z"/></g>
<g><path style="opacity:1" fill="#e52782" d="M 315.5,166.5 C 325.843,164.849 330.843,169.183 330.5,179.5C 333.5,179.5 336.5,179.5 339.5,179.5C 339.822,181.722 339.155,183.556 337.5,185C 328.846,186.332 320.179,187.498 311.5,188.5C 311.357,186.738 311.691,185.071 312.5,183.5C 307.843,176.752 308.843,171.086 315.5,166.5 Z"/></g>
<g><path style="opacity:1" fill="#fbeef7" d="M 317.5,171.5 C 324.745,171.555 326.745,174.722 323.5,181C 315.424,181.805 313.424,178.638 317.5,171.5 Z"/></g>
<g><path style="opacity:1" fill="#50a3df" d="M 219.5,241.5 C 219.634,239.708 219.301,238.042 218.5,236.5C 226.443,228.728 234.61,221.061 243,213.5C 248.901,205.007 249.901,196.007 246,186.5C 241.231,179.861 235.064,178.028 227.5,181C 224.757,183.038 221.757,184.538 218.5,185.5C 218.5,184.833 218.5,184.167 218.5,183.5C 222.033,177.472 227.033,172.972 233.5,170C 247.512,170.264 258.345,176.431 266,188.5C 269.255,194.008 272.255,199.675 275,205.5C 279.797,212.628 284.963,219.461 290.5,226C 276.048,257.078 251.548,272.911 217,273.5C 196.213,272.938 178.547,265.272 164,250.5C 164.044,248.721 164.711,247.055 166,245.5C 168.309,244.025 170.476,242.358 172.5,240.5C 196.651,261.941 223.318,265.441 252.5,251C 259.142,247.025 264.309,241.858 268,235.5C 262.85,231.759 257.183,229.092 251,227.5C 245.797,230.123 240.297,231.957 234.5,233C 229.77,236.364 224.77,239.197 219.5,241.5 Z"/></g>
<g><path style="opacity:1" fill="#e891c4" d="M 118.5,177.5 C 118.433,178.959 118.766,180.292 119.5,181.5C 118.414,181.38 117.747,180.713 117.5,179.5C 117.543,178.584 117.876,177.917 118.5,177.5 Z"/></g>
<g><path style="opacity:1" fill="#e52882" d="M 118.5,177.5 C 117.876,177.917 117.543,178.584 117.5,179.5C 117.747,180.713 118.414,181.38 119.5,181.5C 122.545,181.342 125.379,182.009 128,183.5C 129.24,186.906 128.073,188.573 124.5,188.5C 116.921,186.584 109.255,185.084 101.5,184C 100.167,182.333 100.167,180.667 101.5,179C 105.129,179.11 108.796,179.276 112.5,179.5C 112.541,175.384 113.207,171.384 114.5,167.5C 110.864,167.406 107.364,166.739 104,165.5C 103.28,163.888 103.446,162.388 104.5,161C 113.217,161.674 121.883,163.008 130.5,165C 131.833,166.667 131.833,168.333 130.5,170C 126.804,169.997 123.137,169.497 119.5,168.5C 119.296,171.518 118.963,174.518 118.5,177.5 Z"/></g>
<g><path style="opacity:1" fill="#fbfaf9" d="M 218.5,236.5 C 211.027,228.835 203.193,221.502 195,214.5C 193.08,211.661 191.413,208.661 190,205.5C 187.162,181.518 196.662,174.851 218.5,185.5C 221.757,184.538 224.757,183.038 227.5,181C 235.064,178.028 241.231,179.861 246,186.5C 249.901,196.007 248.901,205.007 243,213.5C 234.61,221.061 226.443,228.728 218.5,236.5 Z"/></g>
<g><path style="opacity:1" fill="#e27eb3" d="M 145.5,175.5 C 145.59,178.152 144.924,180.485 143.5,182.5C 143.41,179.848 144.076,177.515 145.5,175.5 Z"/></g>
<g><path style="opacity:1" fill="#fcbd5d" d="M 206.5,189.5 C 209.247,189.187 211.914,189.52 214.5,190.5C 215.874,191.711 217.374,192.711 219,193.5C 225.849,187.855 232.182,188.522 238,195.5C 240.161,199.698 239.828,203.698 237,207.5C 231.5,213 226,218.5 220.5,224C 219.5,224.667 218.5,224.667 217.5,224C 210.968,217.802 204.801,211.302 199,204.5C 197.271,197.29 199.771,192.29 206.5,189.5 Z"/></g>
<g><path style="opacity:1" fill="#d05495" d="M 119.5,199.5 C 121.283,223.392 129.95,244.392 145.5,262.5C 145.03,263.463 144.363,263.463 143.5,262.5C 128.844,245.234 120.178,225.234 117.5,202.5C 117.64,200.97 118.307,199.97 119.5,199.5 Z"/></g>
<g><path style="opacity:1" fill="#cf5594" d="M 319.5,199.5 C 320.693,199.97 321.36,200.97 321.5,202.5C 318.862,225.78 309.862,246.114 294.5,263.5C 293.475,263.103 293.308,262.437 294,261.5C 309.385,243.721 317.885,223.055 319.5,199.5 Z"/></g>
<g><path style="opacity:1" fill="#d05394" d="M 323.5,198.5 C 324.649,198.791 325.316,199.624 325.5,201C 323.705,223.738 315.705,243.905 301.5,261.5C 300.675,262.386 299.675,262.719 298.5,262.5C 314.028,244.091 322.361,222.758 323.5,198.5 Z"/></g>
<g><path style="opacity:1" fill="#fbebf7" d="M 119.5,199.5 C 118.307,199.97 117.64,200.97 117.5,202.5C 120.178,225.234 128.844,245.234 143.5,262.5C 141.309,263.291 139.309,263.291 137.5,262.5C 138.376,262.631 139.043,262.298 139.5,261.5C 124.627,243.556 116.627,222.89 115.5,199.5C 116.961,198.314 118.295,198.314 119.5,199.5 Z"/></g>
<g><path style="opacity:1" fill="#d05896" d="M 115.5,199.5 C 116.627,222.89 124.627,243.556 139.5,261.5C 139.043,262.298 138.376,262.631 137.5,262.5C 126.265,248.315 118.765,232.315 115,214.5C 113.682,209.166 113.516,203.833 114.5,198.5C 115.107,198.624 115.44,198.957 115.5,199.5 Z"/></g>
<g><path style="opacity:1" fill="#fae5f4" d="M 319.5,199.5 C 320.568,198.566 321.901,198.232 323.5,198.5C 322.361,222.758 314.028,244.091 298.5,262.5C 297.167,262.833 295.833,263.167 294.5,263.5C 309.862,246.114 318.862,225.78 321.5,202.5C 321.36,200.97 320.693,199.97 319.5,199.5 Z"/></g>
<g><path style="opacity:1" fill="#68aad5" d="M 154.5,264.5 C 156.028,264.517 156.528,265.184 156,266.5C 154.289,269.255 152.122,271.589 149.5,273.5C 148.417,272.635 148.251,271.635 149,270.5C 151.04,268.63 152.873,266.63 154.5,264.5 Z"/></g>
<g><path style="opacity:1" fill="#70aed6" d="M 157.5,273.5 C 164.676,272.985 166.342,275.818 162.5,282C 155.946,281.957 154.279,279.123 157.5,273.5 Z"/></g>
<g><path style="opacity:1" fill="#6fabd6" d="M 285.5,266.5 C 286.5,266.5 287.5,266.5 288.5,266.5C 288.401,269.673 289.068,272.673 290.5,275.5C 290.376,278.578 289.043,279.578 286.5,278.5C 287.645,277.109 287.645,275.776 286.5,274.5C 284.289,273.877 282.289,272.877 280.5,271.5C 282.135,270.319 283.802,270.319 285.5,271.5C 286.434,269.905 286.434,268.239 285.5,266.5 Z"/></g>
<g><path style="opacity:1" fill="#64a6d5" d="M 272.5,273.5 C 274.312,273.771 275.978,274.438 277.5,275.5C 276.892,277.684 277.559,279.684 279.5,281.5C 279,281.833 278.5,282.167 278,282.5C 276.75,280.294 274.916,278.961 272.5,278.5C 272.5,276.833 272.5,275.167 272.5,273.5 Z"/></g>
<g><path style="opacity:1" fill="#e0f2f7" d="M 158.5,275.5 C 161.5,275.167 162.833,276.5 162.5,279.5C 161.167,279.5 159.833,279.5 158.5,279.5C 158.5,278.167 158.5,276.833 158.5,275.5 Z"/></g>
<g><path style="opacity:1" fill="#65a6d3" d="M 171.5,280.5 C 174.084,280.569 176.084,281.735 177.5,284C 177,284.5 176.5,285 176,285.5C 174.556,283.845 172.722,283.178 170.5,283.5C 170.325,286.329 171.658,287.996 174.5,288.5C 169.547,289.71 167.714,287.71 169,282.5C 169.995,281.934 170.828,281.267 171.5,280.5 Z"/></g>
<g><path style="opacity:1" fill="#6ba9d3" d="M 265.5,280.5 C 268.205,281.69 269.872,283.856 270.5,287C 270.167,287.5 269.833,288 269.5,288.5C 267.095,286.358 265.762,283.691 265.5,280.5 Z"/></g>
<g><path style="opacity:1" fill="#62a6d4" d="M 258.5,283.5 C 259.497,283.47 260.164,283.97 260.5,285C 259.704,286.092 259.037,287.259 258.5,288.5C 259.446,290.258 259.446,291.925 258.5,293.5C 257.368,291.402 256.368,289.235 255.5,287C 256.544,285.826 257.544,284.659 258.5,283.5 Z"/></g>
<g><path style="opacity:1" fill="#65a8d5" d="M 182.5,286.5 C 189.623,286.151 191.623,288.984 188.5,295C 181.492,295.508 179.492,292.675 182.5,286.5 Z"/></g>
<g><path style="opacity:1" fill="#e3f4f8" d="M 183.5,288.5 C 186.5,288.167 187.833,289.5 187.5,292.5C 186.167,292.5 184.833,292.5 183.5,292.5C 183.5,291.167 183.5,289.833 183.5,288.5 Z"/></g>
<g><path style="opacity:1" fill="#67a8d4" d="M 197.5,286.5 C 198.497,286.47 199.164,286.97 199.5,288C 198.814,291.6 197.814,295.1 196.5,298.5C 195.515,294.412 195.848,290.412 197.5,286.5 Z"/></g>
<g><path style="opacity:1" fill="#66a9d6" d="M 226.5,288.5 C 229.198,290.271 232.031,291.937 235,293.5C 235.808,295.579 235.641,297.579 234.5,299.5C 231.851,291.463 229.851,291.796 228.5,300.5C 227.185,296.607 226.518,292.607 226.5,288.5 Z"/></g>
<g><path style="opacity:1" fill="#68a9d4" d="M 214.5,292.5 C 216.5,292.5 218.5,292.5 220.5,292.5C 220.719,293.675 220.386,294.675 219.5,295.5C 216.572,294.079 215.238,295.079 215.5,298.5C 217.288,298.215 218.955,298.548 220.5,299.5C 218.423,302.119 216.257,302.119 214,299.5C 213.297,297.071 213.463,294.738 214.5,292.5 Z"/></g>
<g><path style="opacity:1" fill="#6eacd7" d="M 243.5,288.5 C 245.527,288.338 247.527,288.505 249.5,289C 253.252,295.644 251.252,298.311 243.5,297C 240.899,294.17 240.899,291.337 243.5,288.5 Z"/></g>
<g><path style="opacity:1" fill="#e4f3f8" d="M 244.5,291.5 C 245.5,291.5 246.5,291.5 247.5,291.5C 247.5,292.833 247.5,294.167 247.5,295.5C 244.046,295.733 243.046,294.4 244.5,291.5 Z"/></g>
</svg>
